<svg width="193" height="150" viewBox="0 0 193 150" fill="none" xmlns="http://www.w3.org/2000/svg">
<g clip-path="url(#clip0_26_1616)">
<path fill-rule="evenodd" clip-rule="evenodd" d="M19.7885 41.493H171.767V110.172H19.7885V41.493ZM34.7869 92.1108V57.8892H52.5338C55.8109 57.8892 58.151 58.5331 59.554 59.821C60.2898 60.5414 60.8605 61.4131 61.2266 62.3757C61.5926 63.3383 61.7454 64.3689 61.6742 65.3963C61.79 67.3777 61.3203 69.3495 60.3235 71.0659C59.4941 72.3452 58.2173 73.2692 56.7427 73.6572V73.987C61.1507 74.7513 63.3599 77.7615 63.3703 83.0175C63.4832 85.4131 62.6993 87.7649 61.1716 89.6137C60.3016 90.4956 59.2489 91.1762 58.0876 91.6076C56.9263 92.039 55.6846 92.2108 54.4498 92.1108H34.7869ZM50.0052 78.5258H45.7334V84.1011H49.9581C51.5286 84.1011 52.2511 83.1745 52.2511 81.3213C52.2511 79.4681 51.4972 78.5258 50.0052 78.5258ZM49.1886 65.4434H45.7334V70.5319H49.1414C50.5235 70.5319 51.2145 69.6838 51.2145 67.9876C51.2145 66.2915 50.5392 65.4434 49.1886 65.4434ZM90.3204 92.1422H68.4274V57.8892H79.421V83.3473H90.4146V92.1108L90.3204 92.1422ZM92.9274 75.055C92.9274 68.7729 94.0949 64.2236 96.4297 61.4072C98.7541 58.5331 102.979 57.104 109.072 57.104C115.166 57.104 119.375 58.5331 121.636 61.4072C123.898 64.2812 125.139 68.82 125.139 75.055C125.184 77.6918 124.937 80.3255 124.401 82.9075C123.949 84.908 123.082 86.7914 121.856 88.4358C120.577 90.0533 118.843 91.2511 116.878 91.8752C114.338 92.6695 111.685 93.0409 109.025 92.9746C106.365 93.0423 103.712 92.6709 101.173 91.8752C99.2032 91.2591 97.4672 90.0598 96.1941 88.4358C94.9547 86.7996 94.0865 84.9132 93.6499 82.9075C93.1059 80.3266 92.8582 77.6921 92.9117 75.055H92.9274ZM104.691 69.3697V83.5986H109.229C110.343 83.6667 111.458 83.4897 112.496 83.0803C113.171 82.7348 113.501 81.9338 113.501 80.6931V66.4328H108.9C107.827 66.3761 106.756 66.5529 105.759 66.9511C105.083 67.2966 104.753 68.0976 104.753 69.3383L104.691 69.3697ZM147.786 82.0281V80.5518H145.006V72.2437H158.198V90.4617C153.895 92.0998 149.328 92.9355 144.723 92.9274C138.441 92.9274 134.153 91.4145 131.861 88.3886C130.632 86.7497 129.775 84.8635 129.348 82.8604C128.833 80.2756 128.596 77.6431 128.641 75.0078C128.586 72.3707 128.834 69.736 129.379 67.1553C129.826 65.142 130.734 63.2602 132.033 61.6585C134.441 58.5907 139.09 57.0569 145.979 57.0569C147.84 57.0867 149.697 57.2336 151.539 57.4966C153.236 57.6746 154.912 58.0057 156.549 58.486L154.9 66.8569C152.256 66.378 149.577 66.1206 146.89 66.0873C145.191 66.0041 143.49 66.1896 141.849 66.637C141.397 66.7896 141.01 67.089 140.748 67.4875C140.486 67.8859 140.365 68.3605 140.404 68.8357V84.3367H144.016C144.992 84.3889 145.968 84.2502 146.89 83.9284C147.487 83.6457 147.786 83.0175 147.786 82.0281ZM13.0667 0H179.918C183.381 0.00829453 186.7 1.38762 189.149 3.83631C191.597 6.28499 192.977 9.60374 192.985 13.0667V136.933C192.973 140.395 191.592 143.711 189.144 146.159C186.696 148.607 183.38 149.988 179.918 150H13.0667C9.60374 149.992 6.28499 148.612 3.83631 146.164C1.38762 143.715 0.00829453 140.396 0 136.933L0 13.0667C0.00829453 9.60374 1.38762 6.28499 3.83631 3.83631C6.28499 1.38762 9.60374 0.00829453 13.0667 0V0ZM185.321 31.5674H8.30803V138.205C8.30595 138.68 8.39796 139.151 8.57876 139.59C8.75955 140.029 9.02554 140.428 9.36138 140.764C9.69722 141.1 10.0962 141.366 10.5354 141.547C10.9746 141.728 11.4453 141.82 11.9202 141.818H181.536C182.011 141.82 182.482 141.728 182.921 141.547C183.36 141.366 183.759 141.1 184.095 140.764C184.431 140.428 184.697 140.029 184.877 139.59C185.058 139.151 185.15 138.68 185.148 138.205V31.5674H185.321ZM167.48 11.3391C168.756 11.3391 170.004 11.7177 171.066 12.427C172.127 13.1362 172.955 14.1443 173.443 15.3238C173.932 16.5033 174.06 17.8011 173.811 19.0532C173.562 20.3053 172.947 21.4555 172.044 22.3582C171.141 23.2609 169.991 23.8757 168.739 24.1247C167.487 24.3738 166.189 24.246 165.01 23.7574C163.83 23.2689 162.822 22.4415 162.113 21.3801C161.404 20.3186 161.025 19.0706 161.025 17.7939C161.025 16.082 161.705 14.4402 162.916 13.2297C164.126 12.0192 165.768 11.3391 167.48 11.3391ZM123.757 11.3391C125.033 11.3391 126.281 11.7177 127.343 12.427C128.404 13.1362 129.232 14.1443 129.72 15.3238C130.209 16.5033 130.337 17.8011 130.087 19.0532C129.838 20.3053 129.224 21.4555 128.321 22.3582C127.418 23.2609 126.268 23.8757 125.016 24.1247C123.764 24.3738 122.466 24.246 121.287 23.7574C120.107 23.2689 119.099 22.4415 118.39 21.3801C117.68 20.3186 117.302 19.0706 117.302 17.7939C117.302 16.082 117.982 14.4402 119.192 13.2297C120.403 12.0192 122.045 11.3391 123.757 11.3391ZM145.618 11.3391C146.895 11.3391 148.143 11.7177 149.204 12.427C150.266 13.1362 151.093 14.1443 151.582 15.3238C152.07 16.5033 152.198 17.8011 151.949 19.0532C151.7 20.3053 151.085 21.4555 150.182 22.3582C149.28 23.2609 148.13 23.8757 146.878 24.1247C145.625 24.3738 144.328 24.246 143.148 23.7574C141.969 23.2689 140.961 22.4415 140.251 21.3801C139.542 20.3186 139.163 19.0706 139.163 17.7939C139.163 16.082 139.843 14.4402 141.054 13.2297C142.265 12.0192 143.906 11.3391 145.618 11.3391ZM105.02 133.086C103.634 132.981 102.339 132.356 101.394 131.337C100.449 130.317 99.9237 128.979 99.9237 127.589C99.9237 126.199 100.449 124.86 101.394 123.841C102.339 122.821 103.634 122.197 105.02 122.092H167.291C168.677 122.197 169.973 122.821 170.918 123.841C171.863 124.86 172.388 126.199 172.388 127.589C172.388 128.979 171.863 130.317 170.918 131.337C169.973 132.356 168.677 132.981 167.291 133.086H105.02ZM23.5577 133.086C22.2012 132.94 20.9463 132.299 20.0344 131.284C19.1225 130.269 18.618 128.953 18.618 127.589C18.618 126.224 19.1225 124.908 20.0344 123.894C20.9463 122.879 22.2012 122.237 23.5577 122.092H81.2271C82.5836 122.237 83.8386 122.879 84.7505 123.894C85.6624 124.908 86.1668 126.224 86.1668 127.589C86.1668 128.953 85.6624 130.269 84.7505 131.284C83.8386 132.299 82.5836 132.94 81.2271 133.086H23.5577Z" fill="#FFD100"/>
</g>
<defs>
<clipPath id="clip0_26_1616">
<rect width="192.985" height="150" fill="white"/>
</clipPath>
</defs>
</svg>
