<svg width="340" height="205" viewBox="0 0 340 205" fill="none" xmlns="http://www.w3.org/2000/svg">
<path d="M24.7472 175.164C16.4865 181.337 14.1454 192.198 14.1454 192.198C14.1454 192.198 25.1973 193.051 33.458 186.878C41.7186 180.705 44.0597 169.844 44.0597 169.844C44.0597 169.844 33.0078 168.991 24.7472 175.164Z" fill="#FFD100"/>
<path d="M28.1882 178.062C24.218 187.593 14.2749 192.505 14.2749 192.505C14.2749 192.505 10.7687 181.963 14.7388 172.432C18.7089 162.901 28.652 157.99 28.652 157.99C28.652 157.99 32.1583 168.531 28.1882 178.062Z" fill="#FFD100"/>
<path d="M265.853 150.509C264.976 144.582 264.744 138.577 265.162 132.6L265.853 122.708C262.043 130.309 262.904 140.313 265.853 150.509V150.509Z" fill="#CACACA"/>
<path d="M268.825 152.164C268.402 148.627 268.291 145.06 268.492 141.504L268.825 135.615C266.991 140.14 267.406 146.095 268.825 152.164Z" fill="#CACACA"/>
<path d="M282.032 159.446V162.756C282.031 163.019 281.926 163.27 281.741 163.456C281.555 163.642 281.304 163.747 281.042 163.749H279.391C279.348 163.748 279.305 163.757 279.264 163.773C279.224 163.79 279.188 163.814 279.157 163.845C279.127 163.876 279.102 163.913 279.086 163.953C279.069 163.993 279.061 164.036 279.061 164.08V191.219C279.06 191.482 278.955 191.734 278.769 191.919C278.584 192.105 278.333 192.21 278.07 192.212H257.931C257.669 192.212 257.417 192.107 257.231 191.921C257.045 191.735 256.941 191.482 256.941 191.219V164.08C256.94 163.992 256.906 163.908 256.844 163.846C256.782 163.784 256.698 163.749 256.611 163.749H254.63C254.367 163.748 254.115 163.644 253.929 163.458C253.744 163.271 253.639 163.019 253.639 162.756V159.446C253.639 159.316 253.664 159.186 253.714 159.066C253.764 158.945 253.837 158.836 253.929 158.744C254.021 158.651 254.13 158.578 254.25 158.528C254.371 158.479 254.499 158.453 254.63 158.453H281.042C281.304 158.454 281.556 158.559 281.741 158.745C281.927 158.931 282.031 159.183 282.032 159.446Z" fill="#FFD100"/>
<path d="M279.091 164.444H256.97V165.437H279.091V164.444Z" fill="#E6E6E6"/>
<path d="M279.061 179.054C271.659 182.125 264.176 182.159 256.61 179.054V172.059C263.894 169.607 271.777 169.607 279.061 172.059V179.054Z" fill="#E6E6E6"/>
<path d="M155.074 72.1008C171.598 72.1008 184.993 58.6726 184.993 42.108C184.993 25.5435 171.598 12.1152 155.074 12.1152C138.551 12.1152 125.155 25.5435 125.155 42.108C125.155 58.6726 138.551 72.1008 155.074 72.1008Z" fill="#FEB8B8"/>
<path d="M183.019 16.2328C178.546 8.95117 171.544 3.58563 163.361 1.16901L159.688 3.856V0.367027C157.723 0.0655065 155.734 -0.0506479 153.747 0.0200916L150.578 2.89442V0.258892C145.886 0.84337 141.366 2.39605 137.303 4.81902C133.239 7.24199 129.721 10.4827 126.969 14.3368C120.087 24.2821 118.925 38.1183 125.694 48.1435C127.552 42.4191 129.807 37.0481 131.666 31.3243C133.126 31.5238 134.606 31.531 136.068 31.3457L138.329 26.0579L138.96 31.1219C145.967 30.5101 156.36 29.1664 163.002 27.9353L162.356 24.0503L166.221 27.2785C168.256 26.809 169.464 26.3828 169.364 26.0573C174.305 34.0414 180.351 39.1407 185.29 47.1247C187.167 35.8668 189.326 26.506 183.019 16.2328Z" fill="#202020"/>
<path d="M219.422 119.235C218.393 113.031 217.331 106.707 214.455 101.117C212.564 97.4557 209.563 93.9668 205.517 93.2428C204.72 93.1716 203.937 92.9899 203.19 92.7028C202.005 92.1303 186.075 83.0141 183.543 81.4264C181.369 80.0633 177.937 77.5394 176.207 77.5394C174.466 77.5011 167.791 79.0585 141.737 77.0168C141.737 77.0168 134.58 79.8449 129.042 83.2742C128.958 83.2187 102.001 97.7304 100.988 97.6922C99.0698 97.6113 97.287 98.8423 96.1875 100.393C95.0883 101.943 94.5726 103.862 94.0327 105.717C99.9206 118.862 105.308 132.023 111.196 145.168C111.472 145.663 111.619 146.22 111.622 146.787C111.504 147.375 111.253 147.929 110.89 148.406C108.002 153.056 108.094 158.905 108.409 164.37C108.725 169.835 109.115 175.608 106.679 180.507C106.016 181.852 105.154 183.083 104.524 184.428C103.048 187.474 102.515 197.216 103.377 200.489L211.391 203.591C209.069 197.191 219.422 119.235 219.422 119.235Z" fill="#FFD100"/>
<path d="M84.696 145.751C84.4805 147.314 84.4588 148.897 84.6314 150.466L86.1795 172.754C86.3249 174.854 86.4679 176.95 86.6646 179.045C87.0361 183.112 87.591 187.146 88.2797 191.174C88.2952 191.746 88.5365 192.289 88.9505 192.683C89.3646 193.077 89.9176 193.29 90.4882 193.275C97.303 194.721 104.344 194.663 111.299 194.269C121.912 193.675 149.064 192.552 150.723 190.392C152.382 188.231 151.415 184.737 149.252 182.99C147.089 181.244 111.258 176.985 111.258 176.985C111.608 174.204 112.664 171.584 113.666 168.944C115.466 164.26 117.147 159.423 117.179 154.406C117.211 149.388 115.326 144.113 111.226 141.239C107.853 138.879 103.511 138.442 99.4014 138.539C96.4113 138.625 91.2449 137.907 88.5138 139.079C86.3526 140.033 85.0998 143.629 84.696 145.751Z" fill="#FBBEBE"/>
<path d="M93.7211 106.117C93.1964 106.668 92.7895 107.321 92.5254 108.035C88.1708 117.873 85.5987 128.41 84.9296 139.152C84.9414 139.676 84.8209 140.194 84.5795 140.659C84.3414 140.968 84.0764 141.255 83.7876 141.518C83.5357 141.817 83.3452 142.163 83.2268 142.536C83.1084 142.909 83.0644 143.302 83.0974 143.692C83.1305 144.082 83.2398 144.462 83.4192 144.81C83.5987 145.157 83.8447 145.466 84.1432 145.719C84.1922 145.76 84.2424 145.8 84.294 145.838C85.1828 144.161 87.3106 143.613 89.2019 143.467C98.2576 142.749 107.103 146.973 116.186 146.654C115.545 144.434 114.624 142.301 114.101 140.055C111.79 130.08 117.554 119.22 114.02 109.612C113.314 107.69 112.135 105.799 110.276 104.957C109.507 104.646 108.701 104.432 107.879 104.321C105.584 103.905 101.015 102.128 98.7963 102.841C97.9773 103.106 97.6543 103.878 96.9754 104.345C95.9441 105.005 94.5759 105.248 93.7211 106.117Z" fill="#FFD100"/>
<path d="M219.486 139.079C216.755 137.907 211.589 138.625 208.599 138.539C204.489 138.442 200.147 138.879 196.774 141.239C192.674 144.113 190.789 149.388 190.821 154.406C190.853 159.423 192.534 164.26 194.334 168.944C195.336 171.584 196.392 174.204 196.742 176.985C196.742 176.985 160.911 181.244 158.748 182.99C156.585 184.737 155.618 188.231 157.277 190.392C158.936 192.552 210.697 194.721 217.512 193.275C218.082 193.29 218.635 193.077 219.049 192.683C219.464 192.289 219.705 191.746 219.72 191.175C220.409 187.146 220.964 183.112 221.335 179.045C221.532 176.95 221.675 174.854 221.82 172.754L223.369 150.466C223.541 148.897 223.52 147.314 223.304 145.751C222.9 143.629 221.647 140.033 219.486 139.079Z" fill="#FBBEBE"/>
<path d="M211.025 104.345C210.346 103.878 210.023 103.106 209.204 102.841C206.985 102.128 202.416 103.905 200.121 104.321C199.299 104.432 198.493 104.646 197.724 104.957C195.865 105.799 194.686 107.69 193.98 109.612C190.446 119.22 196.21 130.08 193.899 140.055C193.376 142.301 192.455 144.434 191.814 146.654C200.897 146.973 209.742 142.749 218.798 143.467C220.689 143.613 222.817 144.161 223.706 145.838C223.758 145.8 223.808 145.76 223.857 145.719C224.155 145.466 224.401 145.157 224.581 144.81C224.76 144.462 224.87 144.082 224.903 143.692C224.936 143.302 224.892 142.909 224.773 142.536C224.655 142.163 224.464 141.817 224.212 141.518C223.924 141.256 223.659 140.968 223.421 140.659C223.179 140.194 223.059 139.676 223.07 139.152C222.401 128.41 219.829 117.873 215.475 108.035C215.21 107.321 214.804 106.668 214.279 106.117C213.424 105.248 212.056 105.005 211.025 104.345Z" fill="#FFD100"/>
<path d="M146.213 194.34C150.673 194.34 154.288 190.715 154.288 186.244C154.288 181.774 150.673 178.149 146.213 178.149C141.754 178.149 138.138 181.774 138.138 186.244C138.138 190.715 141.754 194.34 146.213 194.34Z" fill="#FBBEBE"/>
<path d="M164.094 194.34C168.554 194.34 172.169 190.715 172.169 186.244C172.169 181.774 168.554 178.149 164.094 178.149C159.634 178.149 156.019 181.774 156.019 186.244C156.019 190.715 159.634 194.34 164.094 194.34Z" fill="#FBBEBE"/>
<path d="M214.312 204.388H103.372C102.077 204.386 100.835 203.87 99.9189 202.952C99.003 202.034 98.4877 200.789 98.4862 199.491V132.02C98.4877 130.722 99.003 129.477 99.9189 128.559C100.835 127.641 102.077 127.124 103.372 127.123H214.312C215.607 127.124 216.849 127.641 217.765 128.559C218.681 129.477 219.196 130.722 219.198 132.02V199.491C219.196 200.789 218.681 202.034 217.765 202.952C216.849 203.87 215.607 204.386 214.312 204.388Z" fill="#333533"/>
<path d="M340 190.877H-32V202.336H-9.99661V205H318.005V202.336H340V190.877Z" fill="#FFD100"/>
<path d="M127.562 53.287C122.754 53.287 118.857 49.0629 118.857 43.8521V39.1347C118.857 33.9239 122.754 29.6998 127.562 29.6998V53.287H127.562Z" fill="#FFD100"/>
<path d="M183.12 29.6998C187.928 29.6998 191.825 33.924 191.825 39.1347V43.8521C191.825 49.0629 187.928 53.287 183.12 53.287V29.6998Z" fill="#FFD100"/>
<path d="M187.681 39.8759H186.3C186.3 20.8911 172.051 5.4458 154.535 5.4458C137.02 5.4458 122.77 20.8911 122.77 39.8759H121.389C121.389 20.0656 136.259 3.94885 154.535 3.94885C172.812 3.94886 187.681 20.0657 187.681 39.8759Z" fill="#FFD100"/>
<path d="M158.55 150.028C162.873 150.028 166.552 151.537 169.588 154.556C171.018 155.976 172.144 157.671 172.899 159.539C174.403 163.362 174.408 167.612 172.913 171.438C172.17 173.285 171.047 174.955 169.616 176.339C168.145 177.805 166.402 178.968 164.484 179.763C162.604 180.547 160.588 180.951 158.551 180.95C156.538 180.956 154.544 180.557 152.687 179.776C148.906 178.166 145.895 175.153 144.285 171.37C142.735 167.597 142.74 163.364 144.299 159.595C145.088 157.697 146.246 155.975 147.706 154.528C150.65 151.529 154.264 150.029 158.55 150.028ZM158.606 152.817C155.074 152.817 152.103 154.05 149.693 156.516C148.505 157.711 147.554 159.121 146.892 160.671C146.246 162.19 145.912 163.824 145.912 165.475C145.912 167.126 146.246 168.76 146.892 170.279C148.225 173.376 150.701 175.84 153.805 177.155C155.33 177.786 156.965 178.11 158.615 178.107C160.265 178.105 161.899 177.777 163.422 177.141C164.989 176.488 166.417 175.542 167.63 174.353C170.039 171.997 171.244 169.043 171.244 165.49C171.252 163.824 170.934 162.173 170.305 160.631C169.678 159.1 168.749 157.71 167.575 156.544C165.09 154.059 162.1 152.817 158.606 152.817ZM158.413 162.922L156.342 163.999C156.175 163.602 155.892 163.265 155.529 163.033C155.259 162.864 154.95 162.769 154.632 162.757C153.252 162.757 152.563 163.668 152.562 165.49C152.562 166.318 152.737 166.981 153.086 167.477C153.435 167.974 153.951 168.223 154.632 168.223C155.533 168.223 156.168 167.781 156.536 166.898L158.44 167.864C158.051 168.602 157.467 169.219 156.752 169.648C156.036 170.076 155.217 170.3 154.383 170.294C153.004 170.294 151.891 169.871 151.044 169.024C150.198 168.177 149.775 167 149.775 165.491C149.775 164.018 150.203 162.849 151.058 161.984C151.913 161.119 152.994 160.687 154.301 160.686C156.215 160.685 157.585 161.431 158.413 162.922ZM167.325 162.922L165.283 163.999C165.116 163.602 164.832 163.265 164.469 163.033C164.19 162.862 163.872 162.767 163.545 162.757C162.165 162.757 161.475 163.668 161.475 165.49C161.475 166.318 161.649 166.981 161.999 167.477C162.348 167.974 162.863 168.223 163.545 168.223C164.445 168.223 165.08 167.781 165.448 166.898L167.379 167.864C166.977 168.598 166.387 169.213 165.67 169.645C164.963 170.075 164.151 170.3 163.324 170.294C161.926 170.294 160.808 169.871 159.972 169.024C159.134 168.177 158.715 167 158.716 165.491C158.716 164.018 159.144 162.849 159.999 161.984C160.854 161.119 161.935 160.687 163.241 160.686C165.154 160.685 166.516 161.431 167.325 162.922Z" fill="#FFD100"/>
</svg>
