<svg width="300" height="318" viewBox="0 0 300 318" fill="none" xmlns="http://www.w3.org/2000/svg">
<path d="M114.845 50.6009C122.7 50.6009 129.067 44.2314 129.067 36.3741C129.067 28.5168 122.7 22.1472 114.845 22.1472C106.991 22.1472 100.623 28.5168 100.623 36.3741C100.623 44.2314 106.991 50.6009 114.845 50.6009Z" fill="#FD6584"/>
<path d="M146.675 29.6372C146.274 28.3216 145.497 27.1521 144.44 26.2726C143.383 25.3931 142.091 24.842 140.725 24.6873C140.693 24.6846 140.661 24.6846 140.629 24.6873C140.591 24.6753 140.552 24.6664 140.512 24.6606C135.75 24.0426 130.456 25.5451 126.893 28.8167C125.57 30.012 124.512 31.4713 123.787 33.1006C123.127 32.198 122.256 31.4701 121.251 30.9799C120.246 30.4897 119.136 30.252 118.019 30.2873C116.577 30.3826 115.2 30.9203 114.076 31.8271C112.951 32.7339 112.133 33.9657 111.734 35.3545C111.69 35.5241 111.702 35.7034 111.768 35.8657C111.834 36.028 111.951 36.1645 112.101 36.2549C112.529 36.6214 113.039 36.8808 113.587 37.0115C114.764 37.262 115.952 37.4911 117.14 37.6989C119.462 38.1038 121.797 38.4324 124.144 38.6846C125.694 38.8498 127.248 38.9812 128.805 39.0789C132.022 39.2814 135.255 39.3293 138.477 39.2281C140.075 39.1748 141.609 39.1215 143.069 38.4182C144.132 37.895 145.041 37.1035 145.705 36.1217C146.331 35.1774 146.742 34.1074 146.909 32.9871C147.077 31.8667 146.997 30.7233 146.675 29.6372Z" fill="#E6E6E6"/>
<path d="M117.417 50.3642C117.39 49.7681 117.29 49.1775 117.119 48.6059C116.716 47.2904 115.937 46.1212 114.88 45.2419C113.822 44.3626 112.53 43.8114 111.164 43.6559C111.134 43.6532 111.103 43.6532 111.073 43.6559C111.033 43.6445 110.992 43.6356 110.951 43.6293C108.315 43.3063 105.641 43.5813 103.126 44.4338C99.2592 45.7286 95.8663 48.3394 94.2311 52.0692C93.5698 51.1661 92.6984 50.4378 91.6923 49.9476C90.6862 49.4574 89.5758 49.2199 88.4572 49.2559C87.0158 49.3512 85.6388 49.8889 84.514 50.7957C83.3893 51.7025 82.5715 52.9343 82.1721 54.3231C82.1307 54.4928 82.1439 54.6712 82.2099 54.8329C82.2759 54.9946 82.3913 55.1314 82.5396 55.2235C82.9687 55.5891 83.4778 55.8483 84.0257 55.9802C85.2081 56.2306 86.3906 56.4597 87.5837 56.6675C89.906 57.0724 92.239 57.401 94.5826 57.6532C99.3439 58.1646 104.135 58.3461 108.921 58.1967C110.514 58.1434 112.053 58.0901 113.513 57.3868C114.575 56.8634 115.482 56.0718 116.144 55.0903C117.078 53.6985 117.525 52.0369 117.417 50.3642Z" fill="#E6E6E6"/>
<path d="M222.713 229.904H209.748V27.4459C208.875 26.8012 207.996 26.1618 207.106 25.5384C206.931 25.4158 206.755 25.2933 206.579 25.1707C196.325 17.996 185.234 12.1019 173.55 7.61942L171.036 42.3064L171.036 42.3085H154.86V1.80628C153.805 1.5452 152.751 1.30009 151.685 1.07098V42.3085H90.6021V0C89.5421 0.197146 88.4822 0.399622 87.4276 0.61808V42.3085H70.7188L70.7186 42.3064L68.082 5.93036C56.712 9.87293 45.8459 15.1416 35.7082 21.6274C35.3566 21.8512 35.0051 22.075 34.6536 22.3094C33.9451 22.7677 33.2367 23.2366 32.539 23.7108V229.904H14.2854C11.95 229.902 9.64994 230.474 7.58682 231.569C5.5237 232.663 3.76054 234.248 2.45192 236.183C1.14329 238.118 0.32915 240.344 0.0808953 242.667C-0.167359 244.99 0.157843 247.339 1.02799 249.507C1.28906 250.162 1.60071 250.796 1.96011 251.403C2.4243 252.195 2.96294 252.941 3.56869 253.631C4.90679 255.156 6.55497 256.378 8.40309 257.215C10.2512 258.052 12.2567 258.485 14.2854 258.485H222.713C226.502 258.485 230.135 256.979 232.814 254.299C235.493 251.619 236.998 247.984 236.998 244.194C236.998 240.404 235.493 236.769 232.814 234.089C230.135 231.409 226.502 229.904 222.713 229.904L222.713 229.904ZM167.553 90.4644L157.47 229.904H84.285L74.2022 90.4644H167.553ZM170.807 45.4836L168.32 79.8807H154.86V45.4836H170.807ZM151.685 45.4836V79.8807H127.38C126.893 78.9254 126.152 78.1232 125.238 77.5629C124.324 77.0025 123.273 76.7058 122.201 76.7056H119.027C117.955 76.7058 116.904 77.0025 115.99 77.5629C115.076 78.1232 114.335 78.9254 113.848 79.8807H90.6021V45.4836H151.685ZM87.4276 79.8807H73.4351L70.9478 45.4836H87.4276V79.8807Z" fill="#F2F2F2"/>
<path d="M1.26123 252.947C5.88841 258.431 10.8932 263.586 16.2391 268.372L218.419 268.905C223.764 264.119 228.769 258.964 233.396 253.48L1.26123 252.947Z" fill="#3F3D56"/>
<path d="M103.363 201.364V256.011H141.633V201.364C141.634 200.971 141.509 200.588 141.276 200.272C141.043 199.955 140.714 199.722 140.339 199.606C140.162 199.547 139.977 199.518 139.79 199.52H105.211C104.969 199.52 104.729 199.567 104.505 199.66C104.281 199.752 104.077 199.888 103.905 200.059C103.734 200.23 103.597 200.434 103.504 200.657C103.411 200.881 103.363 201.121 103.363 201.364ZM118.298 220.141C118.308 219.064 118.743 218.034 119.508 217.276C120.273 216.518 121.307 216.092 122.384 216.092C123.461 216.092 124.494 216.518 125.259 217.276C126.024 218.034 126.459 219.064 126.469 220.141V226.481C126.463 227.562 126.031 228.596 125.265 229.358C124.5 230.12 123.464 230.547 122.384 230.547C121.304 230.547 120.268 230.12 119.502 229.358C118.737 228.596 118.304 227.562 118.298 226.481V220.141Z" fill="#2F2E41"/>
<path d="M103.246 254.263V259.533C103.247 259.806 103.355 260.067 103.548 260.261C103.74 260.454 104.001 260.564 104.274 260.566H140.722C140.996 260.565 141.257 260.455 141.45 260.262C141.642 260.068 141.75 259.806 141.75 259.533V254.263H103.246Z" fill="#3F3D56"/>
<path d="M43.1587 119.032V218.809C43.1597 220.08 43.6651 221.299 44.5639 222.198C45.4627 223.098 46.6814 223.603 47.9525 223.604H195.76C197.031 223.603 198.25 223.098 199.149 222.198C200.048 221.299 200.553 220.08 200.554 218.809V119.032C200.551 117.761 200.045 116.544 199.146 115.646C198.248 114.748 197.03 114.243 195.76 114.241H47.9525C46.6825 114.243 45.4649 114.748 44.5664 115.646C43.6679 116.544 43.1617 117.761 43.1587 119.032Z" fill="#3F3D56"/>
<path d="M46.6262 120.273V217.578C46.6274 218.257 46.8977 218.908 47.3779 219.389C47.8581 219.869 48.5091 220.14 49.1882 220.141H194.53C195.209 220.14 195.86 219.869 196.34 219.389C196.82 218.908 197.091 218.257 197.092 217.578V120.273C197.092 119.593 196.822 118.94 196.342 118.459C195.861 117.978 195.21 117.706 194.53 117.705H49.1882C48.5083 117.706 47.8567 117.978 47.3764 118.459C46.8961 118.94 46.6263 119.593 46.6262 120.273Z" fill="#FFD100"/>
<path d="M76.2623 261.808C76.4102 261.993 76.5983 262.143 76.8123 262.245C77.0263 262.348 77.2608 262.4 77.498 262.399H163.967C164.203 262.399 164.437 262.346 164.65 262.244C164.864 262.142 165.052 261.994 165.201 261.81C165.35 261.626 165.456 261.412 165.511 261.182C165.567 260.952 165.571 260.713 165.522 260.481L164.18 254.103C164.124 253.843 164.004 253.601 163.831 253.399C163.658 253.197 163.438 253.042 163.189 252.947C163.009 252.876 162.818 252.84 162.625 252.84H78.835C78.6417 252.84 78.4502 252.876 78.2704 252.947C78.0219 253.042 77.8011 253.197 77.6281 253.399C77.4551 253.601 77.3353 253.843 77.2796 254.103L75.9374 260.481C75.8896 260.712 75.894 260.952 75.9502 261.181C76.0064 261.411 76.113 261.625 76.2623 261.808Z" fill="#2F2E41"/>
<path d="M78.8349 254.173C78.8086 254.172 78.7825 254.177 78.7579 254.186C78.7156 254.201 78.6775 254.225 78.647 254.258C78.6166 254.291 78.5947 254.331 78.5834 254.374L77.2404 260.755C77.2333 260.792 77.2344 260.83 77.2438 260.867C77.2531 260.903 77.2704 260.937 77.2945 260.966L77.3005 260.973C77.3236 261.004 77.3536 261.028 77.388 261.044C77.4223 261.061 77.4601 261.068 77.4981 261.067H163.967C164.005 261.068 164.042 261.059 164.076 261.043C164.11 261.027 164.14 261.003 164.164 260.974C164.189 260.945 164.207 260.912 164.217 260.875C164.227 260.838 164.228 260.799 164.22 260.762L162.877 254.377C162.867 254.335 162.847 254.297 162.819 254.264C162.791 254.232 162.755 254.207 162.715 254.191C162.687 254.179 162.656 254.173 162.625 254.173H78.8349Z" fill="white"/>
<path d="M53.8612 131.109H189.857C189.998 131.106 190.133 131.048 190.231 130.946C190.33 130.845 190.386 130.71 190.386 130.568C190.386 130.427 190.33 130.291 190.231 130.19C190.133 130.089 189.998 130.03 189.857 130.027H53.8612C53.7199 130.03 53.5854 130.089 53.4865 130.19C53.3876 130.291 53.3323 130.427 53.3323 130.568C53.3323 130.71 53.3876 130.845 53.4865 130.946C53.5854 131.048 53.7199 131.106 53.8612 131.109Z" fill="#3F3D56"/>
<path d="M180.599 127.265C182.35 127.265 183.769 125.814 183.769 124.024C183.769 122.234 182.35 120.782 180.599 120.782C178.849 120.782 177.43 122.234 177.43 124.024C177.43 125.814 178.849 127.265 180.599 127.265Z" fill="#3F3D56"/>
<path d="M169.65 127.265C171.401 127.265 172.82 125.814 172.82 124.024C172.82 122.234 171.401 120.782 169.65 120.782C167.9 120.782 166.481 122.234 166.481 124.024C166.481 125.814 167.9 127.265 169.65 127.265Z" fill="#3F3D56"/>
<path d="M158.701 127.265C160.452 127.265 161.871 125.814 161.871 124.024C161.871 122.234 160.452 120.782 158.701 120.782C156.951 120.782 155.532 122.234 155.532 124.024C155.532 125.814 156.951 127.265 158.701 127.265Z" fill="#3F3D56"/>
<path d="M59.8737 122.175C59.8734 122.252 59.8881 122.328 59.9171 122.399C59.9461 122.47 59.9887 122.534 60.0426 122.589C60.0965 122.643 60.1607 122.686 60.2313 122.716C60.3019 122.746 60.3777 122.761 60.4543 122.761H68.2309C68.3846 122.758 68.5308 122.694 68.6383 122.584C68.7457 122.474 68.8059 122.326 68.8059 122.173C68.8059 122.019 68.7457 121.871 68.6383 121.761C68.5308 121.651 68.3846 121.587 68.2309 121.584H60.4543C60.2991 121.586 60.1509 121.649 60.0421 121.76C59.9333 121.871 59.8728 122.02 59.8737 122.175Z" fill="#3F3D56"/>
<path d="M59.8737 124.387C59.8734 124.463 59.8881 124.539 59.9171 124.61C59.946 124.681 59.9887 124.746 60.0426 124.8C60.0965 124.854 60.1607 124.898 60.2313 124.927C60.3019 124.957 60.3777 124.972 60.4543 124.973H68.2308C68.3847 124.969 68.5311 124.906 68.6387 124.796C68.7463 124.686 68.8065 124.538 68.8065 124.384C68.8065 124.23 68.7463 124.082 68.6387 123.972C68.5311 123.862 68.3847 123.799 68.2308 123.795H60.4543C60.2991 123.797 60.1509 123.86 60.0421 123.971C59.9333 124.082 59.8728 124.231 59.8737 124.387Z" fill="#3F3D56"/>
<path d="M59.8737 126.592C59.8728 126.748 59.9333 126.897 60.0421 127.008C60.1509 127.119 60.2991 127.182 60.4543 127.184H68.2309C68.3846 127.18 68.5308 127.117 68.6383 127.007C68.7457 126.897 68.8059 126.749 68.8059 126.595C68.8059 126.441 68.7457 126.294 68.6383 126.184C68.5308 126.074 68.3846 126.01 68.2309 126.006H60.4543C60.3777 126.007 60.3019 126.022 60.2313 126.052C60.1607 126.081 60.0965 126.125 60.0426 126.179C59.9887 126.234 59.946 126.298 59.9171 126.369C59.8881 126.44 59.8734 126.516 59.8737 126.592Z" fill="#3F3D56"/>
<path d="M169.593 147.624H74.1244C72.8702 147.625 71.6678 148.124 70.781 149.011C69.8941 149.898 69.3953 151.101 69.3938 152.356V198.838C69.3952 200.092 69.894 201.295 70.7809 202.183C71.6677 203.07 72.8701 203.569 74.1244 203.57H169.593C170.848 203.569 172.05 203.07 172.937 202.183C173.824 201.295 174.323 200.092 174.324 198.838V152.356C174.322 151.101 173.824 149.898 172.937 149.011C172.05 148.124 170.848 147.625 169.593 147.624ZM173.259 152.356V165.917H139.702V148.689H169.593C170.565 148.69 171.497 149.077 172.184 149.764C172.871 150.452 173.258 151.384 173.259 152.356H173.259ZM105.081 184.211V166.983H138.637V184.211H105.081ZM138.637 185.277V202.505H105.081V185.277H138.637ZM104.015 184.211H70.4591V166.983H104.015V184.211ZM105.081 165.917V148.689H138.637V165.917H105.081ZM139.702 166.983H173.259V184.211H139.702V166.983ZM74.1244 148.689H104.015V165.917H70.4591V152.356C70.4602 151.384 70.8467 150.452 71.5338 149.764C72.221 149.077 73.1526 148.69 74.1244 148.689V148.689ZM70.4591 198.838V185.277H104.015V202.505H74.1244C73.1526 202.504 72.2209 202.117 71.5338 201.429C70.8466 200.742 70.4601 199.81 70.4591 198.838ZM169.593 202.505H139.702V185.277H173.259V198.838C173.258 199.81 172.871 200.742 172.184 201.429C171.497 202.117 170.565 202.504 169.593 202.505H169.593Z" fill="#3F3D56"/>
<path d="M117.007 159.425C116.16 158.023 115.156 156.526 113.583 156.069C111.763 155.538 109.892 156.591 108.306 157.63C103.561 160.738 98.9925 164.105 94.6199 167.718L94.6247 167.772L104.837 167.068C107.297 166.898 109.841 166.705 112.015 165.541C112.839 165.099 113.643 164.509 114.578 164.468C115.739 164.417 116.752 165.228 117.547 166.076C122.254 171.09 123.616 178.757 128.897 183.162C125.567 174.947 121.591 167.01 117.007 159.425Z" fill="white"/>
<path d="M145.938 201.95C145.418 201.293 145.205 201.139 144.691 200.475C140.511 195.067 136.582 189.475 132.904 183.701C130.406 179.78 128.031 175.783 125.781 171.711C124.709 169.775 123.667 167.824 122.654 165.858C121.869 164.333 121.1 162.799 120.35 161.257C120.135 160.816 119.926 160.373 119.719 159.93C119.23 158.886 118.75 157.838 118.234 156.808C117.701 155.573 116.886 154.48 115.853 153.617C115.362 153.244 114.776 153.018 114.161 152.966C113.296 152.971 112.448 153.214 111.711 153.668C106.134 156.601 100.928 160.192 96.2053 164.365C91.4751 168.52 87.2472 173.215 83.6075 178.354C83.4962 178.513 83.2329 178.361 83.3453 178.201C83.7878 177.575 84.2391 176.955 84.6992 176.343C90.4202 168.731 97.4349 162.186 105.423 157.006C106.767 156.135 108.136 155.304 109.53 154.515C110.233 154.117 110.939 153.724 111.657 153.355C112.345 152.951 113.117 152.712 113.912 152.656C116.648 152.613 118.065 155.713 119.038 157.799C119.344 158.456 119.654 159.11 119.967 159.762C121.151 162.239 122.38 164.693 123.655 167.125C124.442 168.626 125.246 170.119 126.067 171.603C128.623 176.223 131.34 180.75 134.217 185.183C138.029 191.056 141.81 196.244 146.153 201.735C146.272 201.887 146.059 202.104 145.938 201.95Z" fill="white"/>
<path d="M95.9349 162.834C95.7759 162.656 95.6179 162.479 95.4579 162.302C94.1961 160.906 92.8422 159.526 91.1094 158.726C90.2833 158.332 89.3814 158.123 88.4663 158.113C87.5222 158.139 86.5913 158.342 85.722 158.712C85.3088 158.877 84.9047 159.064 84.5068 159.264C84.0521 159.493 83.6055 159.737 83.1609 159.983C82.3265 160.445 81.5028 160.927 80.69 161.43C79.0728 162.43 77.5061 163.506 75.9902 164.658C75.2043 165.256 74.4346 165.873 73.6812 166.51C72.9804 167.102 72.2939 167.709 71.6214 168.332C71.4776 168.465 71.263 168.25 71.4067 168.118C71.584 167.953 71.7632 167.788 71.9425 167.626C72.4488 167.168 72.9632 166.719 73.4858 166.279C74.4387 165.475 75.4163 164.701 76.4185 163.959C77.9771 162.804 79.5892 161.728 81.2551 160.73C82.0875 160.231 82.9314 159.754 83.7868 159.297C84.045 159.159 84.3063 159.025 84.5706 158.897C85.1703 158.594 85.7934 158.341 86.4339 158.138C87.3412 157.845 88.3011 157.75 89.2482 157.862C90.1626 157.995 91.0436 158.3 91.8447 158.76C93.546 159.712 94.8655 161.182 96.1496 162.618C96.2792 162.764 96.0655 162.98 95.9349 162.834Z" fill="white"/>
<path d="M130.794 177.3L134.87 175.808L136.895 175.068C137.548 174.804 138.215 174.574 138.893 174.379C139.485 174.21 140.114 174.218 140.702 174.402C141.226 174.596 141.705 174.894 142.112 175.277C142.528 175.66 142.915 176.073 143.269 176.513C143.71 177.043 144.144 177.578 144.58 178.112C146.38 180.314 148.169 182.525 149.945 184.747C151.721 186.968 153.486 189.198 155.239 191.438C156.996 193.684 158.74 195.939 160.473 198.203C160.685 198.48 160.897 198.758 161.109 199.036C161.226 199.189 161.49 199.038 161.372 198.882C159.626 196.595 157.868 194.317 156.099 192.049C154.324 189.775 152.538 187.511 150.739 185.257C148.94 183.003 147.13 180.758 145.307 178.523C144.852 177.966 144.397 177.41 143.942 176.855C143.557 176.386 143.177 175.912 142.756 175.476C142.397 175.043 141.956 174.686 141.459 174.424C140.962 174.162 140.418 174 139.858 173.949C139.18 173.972 138.512 174.119 137.887 174.382C137.205 174.629 136.525 174.88 135.844 175.129L131.739 176.631L130.713 177.007C130.531 177.073 130.609 177.367 130.794 177.3V177.3Z" fill="white"/>
<path d="M90.573 160.482C89.5254 159.966 88.3594 159.738 87.1945 159.821C86.0296 159.905 84.9079 160.296 83.9445 160.957C87.5757 161.583 91.1672 162.422 94.7006 163.468C93.2333 162.608 92.0856 161.26 90.573 160.482Z" fill="white"/>
<path d="M83.924 160.953L83.5252 161.277C83.6601 161.164 83.8004 161.057 83.9444 160.957L83.924 160.953Z" fill="white"/>
<path d="M141.959 177.315C141.602 176.788 141.105 176.373 140.523 176.116L139.963 176.138C144.229 183.679 149.991 190.268 156.894 195.501L141.959 177.315Z" fill="white"/>
<path d="M139.337 169.058C141.119 169.058 142.564 167.613 142.564 165.83C142.564 164.047 141.119 162.602 139.337 162.602C137.555 162.602 136.11 164.047 136.11 165.83C136.11 167.613 137.555 169.058 139.337 169.058Z" fill="white"/>
<path d="M186.169 201.705C186.805 201.704 187.414 201.451 187.863 201.002C188.313 200.552 188.565 199.943 188.566 199.308V149.755C188.566 149.119 188.314 148.509 187.864 148.059C187.415 147.61 186.805 147.357 186.169 147.357C185.534 147.357 184.924 147.61 184.475 148.059C184.025 148.509 183.773 149.119 183.773 149.755V199.308C183.774 199.943 184.026 200.552 184.476 201.002C184.925 201.451 185.534 201.704 186.169 201.705Z" fill="#3F3D56"/>
<path d="M186.169 201.705C186.805 201.704 187.414 201.452 187.863 201.002C188.313 200.553 188.565 199.943 188.566 199.308V188.8C188.29 188.424 187.929 188.118 187.513 187.906C187.097 187.695 186.636 187.585 186.169 187.585C185.703 187.585 185.242 187.695 184.826 187.906C184.41 188.118 184.049 188.424 183.773 188.8V199.308C183.774 199.943 184.026 200.553 184.476 201.002C184.925 201.452 185.534 201.704 186.169 201.705Z" fill="#2F2E41"/>
<path d="M186.169 191.582C186.853 191.581 187.508 191.308 187.991 190.825C188.474 190.342 188.746 189.686 188.747 189.003V177.703C188.45 177.298 188.062 176.968 187.614 176.741C187.166 176.514 186.671 176.396 186.169 176.396C185.667 176.396 185.172 176.514 184.725 176.741C184.277 176.968 183.889 177.298 183.592 177.703V189.003C183.593 189.686 183.865 190.342 184.348 190.825C184.831 191.308 185.486 191.581 186.169 191.582Z" fill="#FFD100"/>
<path d="M186.169 189.527C186.668 189.526 187.146 189.328 187.498 188.975C187.851 188.622 188.049 188.145 188.05 187.646V179.404C187.833 179.108 187.55 178.868 187.223 178.703C186.897 178.537 186.536 178.451 186.169 178.451C185.803 178.451 185.442 178.537 185.116 178.703C184.789 178.868 184.506 179.108 184.289 179.404V187.646C184.29 188.145 184.488 188.622 184.841 188.975C185.193 189.328 185.671 189.526 186.169 189.527Z" fill="#3F3D56"/>
<path d="M112.227 257.374C111.806 256.997 111.552 256.469 111.52 255.904C111.488 255.34 111.682 254.787 112.058 254.365L132.999 230.925C133.185 230.716 133.411 230.546 133.663 230.425C133.915 230.303 134.189 230.233 134.468 230.217C134.747 230.202 135.027 230.241 135.291 230.333C135.555 230.426 135.799 230.57 136.007 230.756C136.216 230.943 136.386 231.168 136.507 231.42C136.628 231.673 136.699 231.946 136.715 232.226C136.73 232.505 136.691 232.785 136.598 233.049C136.506 233.313 136.363 233.557 136.176 233.765L115.235 257.205C114.858 257.626 114.33 257.88 113.766 257.912C113.202 257.944 112.648 257.75 112.227 257.374Z" fill="#FFD100"/>
<path d="M285.948 295.967C285.948 299.851 285.032 302.825 285.143 305.201C278.861 307.944 272.402 310.262 265.809 312.138C265.063 312.352 264.317 312.554 263.566 312.756C259.502 300.31 255.433 288.913 253.83 287.703C250.16 284.948 248.322 296.345 248.322 293.591C248.322 290.836 250.16 290.836 245.574 287.165C240.982 283.494 243.736 266.971 243.736 266.971L237.312 250.448L244.498 224.094L253.83 189.86H263.007C263.007 189.86 263.279 190.057 263.731 190.425C266.027 192.3 272.951 198.566 272.184 205.467C271.955 207.523 272.467 213.502 273.356 221.462C276.062 245.498 282.278 271.628 282.278 278.522C282.278 287.703 285.948 290.458 285.948 295.967Z" fill="#E6E6E6"/>
<path d="M278.252 221.372C278.242 221.345 278.236 221.324 278.226 221.303C278.02 220.748 277.78 220.207 277.507 219.683C275.957 216.768 277.597 212.293 275.85 207.348C273.027 199.334 269.586 194.608 264.542 190.372C264.393 190.244 264.244 190.122 264.089 189.994L264.084 189.988C260.718 187.223 256.659 184.639 251.62 181.421C250.571 180.749 249.474 180.051 248.334 179.316C246.864 178.373 246.944 175.229 247.029 171.904C247.125 168.212 247.226 164.386 245.415 161.999L245.298 161.845L245.111 161.797C238.902 160.568 232.569 160.08 226.245 160.342H226.24C223.555 160.442 220.888 160.833 218.288 161.509C218.096 161.562 217.904 161.615 217.718 161.679C217.574 161.717 217.43 161.765 217.286 161.813L217.169 161.855L217.079 161.94C215.326 163.693 214.921 166.837 214.73 170.114V170.119C214.692 170.716 214.66 171.313 214.634 171.91C214.485 175.096 214.346 178.106 213.174 179.412C210.561 182.374 207.401 184.805 203.869 186.573C198.367 189.29 194.015 189.205 193.951 189.205L193.445 189.189L193.397 189.69C189.743 196.654 189.882 214.621 189.77 233.861C189.765 234.932 189.758 236.009 189.749 237.09C189.685 246.052 189.514 255.169 188.843 263.476C188.55 267.046 188.172 270.461 187.666 273.653C185.205 289.195 174.057 276.29 168.725 286.632C168.901 287.649 169.196 288.642 169.604 289.59C170.217 289.952 170.845 290.304 171.469 290.655C174.233 292.195 177.049 293.632 179.916 294.966C180.076 295.04 180.236 295.115 180.396 295.184C185.655 297.619 191.076 299.687 196.62 301.376C197.701 301.706 198.782 302.02 199.874 302.319C209.533 304.986 219.478 306.476 229.494 306.757C229.535 306.753 229.576 306.751 229.617 306.752C241.462 306.424 253.23 304.728 264.686 301.695C264.846 301.653 265.005 301.61 265.165 301.568C265.916 301.365 266.662 301.163 267.408 300.949C274.001 299.073 280.46 296.755 286.743 294.012C286.749 294.246 286.772 294.479 286.812 294.71C286.817 294.785 286.828 294.86 286.844 294.934C286.854 294.849 286.865 294.763 286.87 294.678C286.902 294.428 286.929 294.172 286.956 293.916C290.215 262.117 283.446 235.119 278.252 221.372Z" fill="#3F3D56"/>
<path d="M205.049 143.437C208.3 149.384 213.479 154.045 219.732 156.655C225.985 159.264 232.941 159.665 239.452 157.792C245.964 155.919 251.644 151.883 255.556 146.35C259.469 140.816 261.381 134.114 260.977 127.349C260.574 120.583 257.879 114.156 253.337 109.127C248.794 104.098 242.675 100.766 235.987 99.6805C229.299 98.595 222.441 99.8203 216.542 103.155C210.643 106.489 206.055 111.734 203.534 118.025C203.398 118.366 203.275 118.707 203.152 119.062C201.727 123.028 201.159 127.252 201.486 131.453C201.813 135.655 203.027 139.74 205.049 143.437Z" fill="#FFB6B6"/>
<path d="M200.763 119.062C202.046 115.471 201.487 117.342 202.783 113.764C201.937 116.932 203.275 118.707 203.152 119.062H238.657V98.4157C228.255 94.2919 218.086 90.7825 211.943 98.4157C206.469 98.416 201.219 100.591 197.349 104.463C193.478 108.335 191.304 113.587 191.303 119.062H200.763Z" fill="#2F2E41"/>
<path d="M213.349 176.455C213.376 176.073 213.417 175.677 213.472 175.294C213.854 172.482 214.809 169.778 215.779 167.101C216.802 164.22 217.84 161.325 218.877 158.444C217.541 163.674 217.949 169.197 220.038 174.175C226.03 169.505 222.249 158.826 230.084 158.826C248.922 158.826 268.305 143.546 268.305 124.688C268.305 105.844 260.224 91.7522 241.387 91.7522C222.536 91.7522 207.247 100.382 206.879 119.226C230.084 124.688 208.967 174.543 213.349 176.455Z" fill="#2F2E41"/>
<path d="M265.951 121.8C278.014 121.8 287.792 112.018 287.792 99.9518C287.792 87.8853 278.014 78.1035 265.951 78.1035C253.889 78.1035 244.111 87.8853 244.111 99.9518C244.111 112.018 253.889 121.8 265.951 121.8Z" fill="#2F2E41"/>
<path d="M300 225.251C299.925 226.375 299.86 227.572 299.803 228.842C298.674 252.761 299.648 284.959 292.037 302.431C290.333 303.363 288.61 304.255 286.87 305.106C286.801 305.138 286.737 305.169 286.679 305.201C286.21 305.431 285.741 305.654 285.273 305.867C285.255 305.882 285.235 305.893 285.214 305.899C280.067 308.332 274.762 310.417 269.336 312.139C268.67 312.352 267.999 312.554 267.328 312.757C267.184 312.8 267.04 312.842 266.896 312.885C256.673 315.909 246.105 317.608 235.449 317.941C234.895 317.957 234.352 317.968 233.825 317.979C233.638 317.984 233.457 317.989 233.276 317.989C232.68 317.995 232.088 318 231.492 318C230.288 318 229.09 317.982 227.897 317.947C217.881 317.666 207.935 316.175 198.276 313.508C197.184 313.21 196.103 312.895 195.022 312.565C189.478 310.877 184.057 308.808 178.798 306.374C178.638 306.304 178.478 306.23 178.318 306.155C175.453 304.823 172.637 303.386 169.871 301.845C169.247 301.493 168.619 301.141 168.006 300.779C167.598 299.831 167.303 298.839 167.128 297.822C165.919 292.009 164.949 295.93 164.257 283.835C163.623 272.747 163.218 261.627 163.069 255.27C163.021 253.576 163.005 252.217 163 251.29C163.564 247.251 172.64 242.669 185.877 238.316C187.128 237.905 188.423 237.495 189.749 237.09C193.328 235.987 197.153 234.906 201.147 233.861C211.321 231.197 222.618 228.752 233.83 226.732C239.364 225.741 244.877 224.851 250.23 224.095C259.621 222.763 268.505 221.841 276.106 221.462C276.836 221.425 277.549 221.393 278.252 221.372C279.009 221.34 279.749 221.319 280.473 221.303C291.424 221.063 298.903 222.203 300 225.251Z" fill="#2F2E41"/>
<path opacity="0.2" d="M300 225.251C299.926 226.375 299.86 227.572 299.803 228.842C291.504 219.901 202.106 259.842 164.257 283.835C163.623 272.747 163.218 261.627 163.069 255.27C163.021 253.576 163.005 252.217 163 251.29C163.564 247.251 172.64 242.669 185.877 238.316C187.128 237.906 188.423 237.495 189.749 237.09C193.328 235.987 197.153 234.906 201.147 233.861C211.321 231.197 222.618 228.752 233.83 226.732C239.364 225.741 244.877 224.851 250.23 224.095C259.621 222.763 268.505 221.841 276.106 221.462C276.836 221.425 277.549 221.393 278.252 221.372C279.009 221.34 279.749 221.319 280.473 221.303C291.425 221.063 298.903 222.203 300 225.251Z" fill="black"/>
<path d="M118.193 252.965C119.032 254.022 120.091 254.883 121.298 255.486C122.505 256.089 123.829 256.42 125.178 256.456C126.526 256.492 127.866 256.232 129.103 255.693C130.34 255.155 131.444 254.352 132.338 253.341L162.671 265.803L159.397 249.074L131.094 239.805C129.297 238.416 127.052 237.735 124.786 237.892C122.521 238.048 120.391 239.03 118.801 240.652C117.21 242.274 116.27 244.424 116.158 246.693C116.046 248.962 116.77 251.194 118.193 252.965Z" fill="#FFB6B6"/>
<path d="M219.094 183.303L218.927 183.285L201.239 184.57C198.993 184.733 196.808 185.372 194.828 186.444C192.848 187.517 191.119 188.998 189.755 190.791C189.121 191.621 188.572 192.513 188.117 193.453L188.112 193.456C186.588 196.577 186.128 200.113 186.804 203.52L195.132 245.455L175.095 243.634L167.78 244.884L159.149 241.401L141.438 241.702L141.028 243.06L137.312 255.381L137.021 256.349L164.066 273.398L171.906 271.012L175.6 273.85L175.777 273.855L183.102 274L214.341 274.612L222.879 259.479L224.214 257.107C234.131 234.883 236.578 219.369 235.801 208.681C235.394 203.033 234.089 198.741 232.509 195.505C227.623 185.508 219.438 183.387 219.094 183.303Z" fill="#3F3D56"/>
<path d="M268.714 119.349C264.572 118.418 260.732 116.455 257.55 113.644C254.368 110.833 251.947 107.264 250.512 103.267C249.23 99.549 248.747 95.4663 246.596 92.1574C249.872 87.6561 252.5 82.7162 254.401 77.4828C255.137 75.4567 256.861 71.7788 253.939 70.6643C251.611 69.7763 248.967 71.9194 247.587 73.6105C246.538 74.8919 245.787 76.3896 245.385 77.996C244.909 75.894 244.433 73.7919 243.958 71.6899C243.897 71.4882 243.761 71.3176 243.578 71.2136C243.395 71.1097 243.179 71.0803 242.975 71.1317C239.075 71.7967 236.247 75.4091 235.755 79.2139C235.487 81.1727 235.933 83.1627 237.01 84.8201C238.263 86.7267 240.098 88.0935 241.843 89.5143C243.7 91.0253 245.274 92.6346 246.272 94.8441C247.309 97.1406 247.776 99.6537 248.464 102.065C249.771 106.697 252.302 110.89 255.791 114.203C259.28 117.516 263.597 119.826 268.289 120.891C269.291 121.11 269.72 119.569 268.714 119.349ZM246.691 81.1373C246.565 79.1293 247.096 77.135 248.202 75.4549C248.756 74.603 249.45 73.851 250.254 73.2309C251.017 72.6479 252.143 71.8757 253.152 72.0899C254.461 72.3677 253.935 73.8294 253.656 74.711C253.29 75.874 252.886 77.0246 252.446 78.1629C251.59 80.3734 250.595 82.528 249.469 84.6141C248.884 85.6999 248.259 86.7627 247.607 87.8081C247.157 85.821 246.707 83.8339 246.257 81.8468C246.399 81.7949 246.519 81.6965 246.598 81.5676C246.676 81.4388 246.709 81.2871 246.691 81.1373ZM237.359 81.4554C237.098 79.6396 237.477 77.7895 238.431 76.223C239.385 74.6564 240.855 73.4713 242.588 72.8712C243.856 78.4731 245.125 84.075 246.393 89.677C246.131 90.0631 245.861 90.4435 245.59 90.8236C245.52 90.742 245.455 90.6576 245.381 90.5773C242.721 87.6813 238.082 85.7071 237.359 81.4554Z" fill="#FFD100"/>
</svg>
