<svg width="300" height="300" viewBox="0 0 300 300" fill="none" xmlns="http://www.w3.org/2000/svg">
<path d="M90.7942 237C82.6113 237 78.5199 233.029 78.5199 225.086V221.115L83.213 211.007C101.264 172.979 114.38 140.126 122.563 112.448L125.451 103.784H113.899C104.753 103.784 98.2551 104.145 94.4043 104.867C90.5536 105.589 85.8604 107.875 80.3249 111.726C77.6775 113.411 75.0301 115.577 72.3827 118.225C69.7353 120.872 67.4489 123.399 65.5235 125.806C63.5981 128.213 62.515 129.657 62.2744 130.138C61.793 130.379 59.988 130.499 56.8592 130.499C52.2864 130.499 50 129.296 50 126.889C50 125.445 52.2864 121.233 56.8592 114.253C61.432 107.274 68.0505 99.8127 76.7148 91.8702C85.3791 83.9278 93.923 79.3549 102.347 78.1515C104.031 77.6701 131.107 77.4294 183.574 77.4294C222.082 77.4294 241.817 77.5498 242.78 77.7905C247.593 79.4752 250 82.8447 250 87.899C250 95.3601 246.149 100.414 238.448 103.062C237.004 103.543 228.7 103.784 213.538 103.784H190.433L189.35 109.921C186.462 127.25 185.018 141.571 185.018 152.882C185.018 165.398 186.101 176.589 188.267 186.457C190.433 196.325 192.72 204.027 195.126 209.563C197.533 215.098 198.736 218.468 198.736 219.671C198.736 223.763 197.052 227.613 193.682 231.224C190.313 234.834 185.981 236.639 180.686 236.639C178.039 236.639 175.872 236.278 174.188 235.556C172.503 234.834 170.578 231.946 168.412 226.891C166.245 221.837 164.32 214.617 162.635 205.23C162.395 203.064 162.274 197.769 162.274 189.345C162.274 177.552 163.357 164.916 165.523 151.438C167.69 137.96 169.856 126.889 172.022 118.225C174.188 109.56 175.391 104.747 175.632 103.784H140.253L139.892 105.228C139.892 105.95 137.605 115.457 133.032 133.748C128.46 152.04 123.285 171.415 117.509 191.873C111.733 212.33 108.002 224.003 106.318 226.891C103.67 233.63 98.4958 237 90.7942 237Z" fill="#202020"/>
<circle cx="150" cy="150" r="145" stroke="#202020" stroke-width="10"/>
</svg>
