<svg width="253" height="203" viewBox="0 0 253 203" fill="none" xmlns="http://www.w3.org/2000/svg">
<g clip-path="url(#clip0_10_249)">
<path d="M176.174 197.587L171.49 197.586L169.263 179.564H176.174L176.174 197.587Z" fill="#FFB6B6"/>
<path d="M176.048 196.06L171.048 194.031L170.905 193.972L168.145 196.06C166.586 196.061 165.091 196.678 163.989 197.778C162.887 198.878 162.267 200.369 162.267 201.925V202.115H177.366V196.06H176.048Z" fill="#2F2E41"/>
<path d="M218.488 191.512L214.297 193.596L204.245 178.457L210.431 175.381L218.488 191.512Z" fill="#FFB6B6"/>
<path d="M218.876 189.614L217.804 190.145L217.694 190.2L212.319 190.614L212.158 190.625L210.619 193.72C209.929 194.063 209.312 194.539 208.806 195.12C208.3 195.702 207.913 196.377 207.668 197.107C207.423 197.837 207.325 198.609 207.379 199.377C207.433 200.145 207.639 200.895 207.984 201.584L208.068 201.753L221.581 195.035L218.876 189.614Z" fill="#2F2E41"/>
<path d="M172.997 100.715L198.82 101.617L199 101.356C199 101.356 201.203 106.484 201.203 110.879C201.203 112.341 200.184 121.899 200.702 123.708C200.767 123.933 200.323 124.484 200.469 125.531C200.563 126.211 201.083 125.688 201.203 126.63C201.289 127.306 200.373 127.679 200.469 128.461C200.573 129.316 201.833 132.084 201.947 133.034C203.154 143.153 204.762 157.813 204.762 157.813C204.762 157.813 211.218 175.066 212.584 175.347C214.876 175.817 216.424 179.976 215.153 180.841C214.548 181.253 206.73 184.024 206.73 184.024C206.301 184.101 204.957 183.429 205.813 181.838C205.97 181.545 205.03 182.29 204.874 181.94C204.708 181.567 205.034 180.084 204.844 179.67C203.135 175.955 200.512 170.806 198.026 168.162C194.353 164.256 192.027 159.281 191.387 153.963L185.685 122.416L183.73 131.262L182.113 132.857L182.557 136.574L182.48 140.183L178.442 155.201C178.442 155.201 177.836 183.247 178.809 184.138C179.336 184.62 181.572 190.562 177.341 191.097L169.654 190.505C169.654 190.505 168.618 188.328 169.136 187.553C169.654 186.778 169.623 186.989 168.991 185.721C168.359 184.453 168.618 182.303 168.618 182.303C167.611 172.203 167.214 162.052 167.429 151.904C167.814 135.237 170.149 116.089 170.149 115.699C170.169 115.3 170.095 114.902 169.934 114.537V113.485L170.926 109.757L172.997 100.715Z" fill="#333533"/>
<path d="M209.337 103.866C214.969 103.866 219.535 99.3098 219.535 93.69C219.535 88.0702 214.969 83.5144 209.337 83.5144C203.704 83.5144 199.138 88.0702 199.138 93.69C199.138 99.3098 203.704 103.866 209.337 103.866Z" fill="#FFEE32"/>
<path d="M207.945 98.9858C207.769 98.9858 207.596 98.9449 207.438 98.8663C207.281 98.7877 207.144 98.6735 207.038 98.5329L204.256 94.8315C204.166 94.7126 204.101 94.5773 204.064 94.4333C204.027 94.2893 204.019 94.1394 204.04 93.9923C204.061 93.8451 204.111 93.7036 204.187 93.5757C204.263 93.4478 204.363 93.3361 204.483 93.2469C204.602 93.1577 204.737 93.0928 204.882 93.0559C205.026 93.0191 205.176 93.0109 205.324 93.0319C205.471 93.0529 205.613 93.1027 205.741 93.1785C205.869 93.2542 205.981 93.3544 206.071 93.4733L207.891 95.8947L212.566 88.8978C212.649 88.774 212.755 88.6676 212.879 88.5848C213.003 88.5019 213.141 88.4443 213.288 88.415C213.434 88.3858 213.584 88.3856 213.73 88.4144C213.877 88.4432 214.016 88.5005 214.14 88.583C214.264 88.6655 214.37 88.7716 214.453 88.8952C214.536 89.0188 214.594 89.1575 214.623 89.3034C214.652 89.4492 214.652 89.5994 214.623 89.7453C214.594 89.8912 214.537 90.0299 214.454 90.1536L208.889 98.4817C208.789 98.6323 208.653 98.7567 208.495 98.8443C208.336 98.932 208.158 98.9804 207.977 98.9854C207.966 98.9856 207.956 98.9858 207.945 98.9858Z" fill="white"/>
<path d="M214.38 104.447C214.479 104.031 214.486 103.598 214.399 103.179C214.313 102.76 214.136 102.365 213.88 102.022C213.624 101.679 213.296 101.396 212.918 101.193C212.541 100.99 212.123 100.872 211.695 100.848L206.47 83.0834L202.935 87.1766L208.559 103.81C208.565 104.53 208.836 105.223 209.32 105.757C209.804 106.291 210.468 106.629 211.185 106.708C211.903 106.787 212.624 106.6 213.213 106.183C213.802 105.767 214.217 105.149 214.38 104.447Z" fill="#FFB8B8"/>
<path d="M210.693 95.7808L210.014 93.2973L210.792 91.8139L210.733 91.6417L210.498 90.9751L209.28 90.0007L209.716 88.759L208.174 84.3891L207.796 83.6309L198.945 65.8988L196.823 61.6461L196.331 60.8769L194.801 58.4814L192.708 55.2104C192.375 54.6876 191.942 54.236 191.433 53.882C190.923 53.528 190.349 53.2785 189.742 53.1482C189.546 53.1052 189.347 53.0746 189.147 53.0566L189.004 53.0456C188.647 53.0259 188.288 53.0468 187.936 53.1079H187.928C187.307 53.2154 186.714 53.4499 186.188 53.7965C185.774 54.0641 185.405 54.3954 185.094 54.7782C184.38 55.6627 184.008 56.7745 184.048 57.91L184.114 59.6975L184.18 61.3238L187.286 66.9281L187.488 67.2943L187.491 67.3053L197.047 84.5576L199.929 89.759L200.366 90.5502L202.304 91.8322L201.787 93.1215L201.937 95.1288L203.586 96.3705L205.975 98.7917L206.071 98.9895L206.805 98.6196L206.875 98.5829L207.04 98.5353L209.313 97.8503L210.693 97.4364L210.737 97.4218L211.115 97.3265L210.693 95.7808Z" fill="#E6E6E6"/>
<path d="M96.3248 40.1601H95.5906V11.9399H148.696V12.6725H96.3248V40.1601Z" fill="#3F3D56"/>
<path d="M156.84 20.3511C162.472 20.3511 167.038 15.7954 167.038 10.1756C167.038 4.55576 162.472 0 156.84 0C151.207 0 146.641 4.55576 146.641 10.1756C146.641 15.7954 151.207 20.3511 156.84 20.3511Z" fill="#FFEE32"/>
<path d="M155.448 15.4715C155.272 15.4715 155.099 15.4306 154.941 15.352C154.783 15.2734 154.646 15.1593 154.541 15.0187L151.759 11.3172C151.669 11.1983 151.604 11.063 151.567 10.919C151.53 10.775 151.522 10.6252 151.543 10.478C151.564 10.3309 151.614 10.1893 151.69 10.0614C151.766 9.93351 151.866 9.82178 151.986 9.7326C152.105 9.64342 152.24 9.57854 152.385 9.54165C152.529 9.50477 152.679 9.4966 152.827 9.51763C152.974 9.53866 153.116 9.58846 153.244 9.6642C153.372 9.73993 153.484 9.84012 153.574 9.95903L155.394 12.3804L160.069 5.38355C160.152 5.25973 160.258 5.15335 160.382 5.07051C160.505 4.98767 160.644 4.92998 160.791 4.90074C160.937 4.87151 161.087 4.8713 161.233 4.90013C161.38 4.92896 161.519 4.98627 161.643 5.06877C161.767 5.15127 161.873 5.25735 161.956 5.38095C162.039 5.50455 162.097 5.64324 162.126 5.78909C162.155 5.93495 162.155 6.08511 162.126 6.23099C162.097 6.37688 162.04 6.51562 161.957 6.6393L156.392 14.9675C156.292 15.1181 156.156 15.2424 155.998 15.33C155.839 15.4177 155.661 15.4661 155.48 15.4711C155.469 15.4713 155.459 15.4715 155.448 15.4715Z" fill="white"/>
<path d="M60.3478 108.673H59.6136V136.893H112.719V136.161H60.3478V108.673Z" fill="#3F3D56"/>
<path d="M120.863 147.088C126.495 147.088 131.061 142.532 131.061 136.912C131.061 131.292 126.495 126.737 120.863 126.737C115.23 126.737 110.664 131.292 110.664 136.912C110.664 142.532 115.23 147.088 120.863 147.088Z" fill="#FFEE32"/>
<path d="M119.471 142.208C119.295 142.208 119.122 142.167 118.964 142.089C118.806 142.01 118.669 141.896 118.564 141.755L115.782 138.054C115.692 137.935 115.627 137.8 115.59 137.656C115.553 137.512 115.545 137.362 115.566 137.215C115.587 137.068 115.637 136.926 115.713 136.798C115.789 136.67 115.889 136.558 116.009 136.469C116.128 136.38 116.263 136.315 116.408 136.278C116.552 136.241 116.702 136.233 116.85 136.254C116.997 136.275 117.139 136.325 117.267 136.401C117.395 136.477 117.507 136.577 117.597 136.696L119.417 139.117L124.092 132.12C124.175 131.996 124.281 131.89 124.405 131.807C124.528 131.724 124.667 131.667 124.814 131.637C124.96 131.608 125.11 131.608 125.256 131.637C125.403 131.666 125.542 131.723 125.666 131.805C125.79 131.888 125.896 131.994 125.979 132.118C126.062 132.241 126.12 132.38 126.149 132.526C126.178 132.672 126.178 132.822 126.149 132.968C126.12 133.114 126.063 133.252 125.98 133.376L120.415 141.704C120.315 141.855 120.179 141.979 120.021 142.067C119.862 142.154 119.684 142.203 119.503 142.208C119.492 142.208 119.482 142.208 119.471 142.208Z" fill="white"/>
<path d="M201.57 109.711C201.581 110.482 201.457 111.249 201.203 111.978L201.148 111.967C194.628 113.092 188.812 113.277 186.121 109.283C182.611 104.823 177.782 104.874 172.396 106.832L171.757 106.143L170.67 104.975L171.669 103.847L170.67 101.671L171.504 98.9859L172.568 98.7917L172.282 96.4804L171.834 95.1288L173.148 93.6893L174.264 90.096L173.46 82.576C172.36 72.2683 174.492 61.8739 179.562 52.8259L182.612 50.0933L183.879 48.9579L185.579 45.7931L187.374 46.0019L192.234 46.5623L192.4 46.9579L193.593 49.8296L199.878 56.5657L199.595 59.4081L199.47 60.6608L199.379 61.5619L198.945 65.8988L197.179 83.6163L197.047 84.5577L195.627 94.7442C197.936 96.9713 199.977 101.261 200.957 105.18C201.067 105.616 200.755 106.059 200.836 106.484C200.95 107.085 201.445 107.656 201.5 108.216C201.552 108.713 201.575 109.212 201.57 109.711Z" fill="#E6E6E6"/>
<path d="M189.122 44.6587C193.784 44.6587 197.564 40.8875 197.564 36.2354C197.564 31.5834 193.784 27.8121 189.122 27.8121C184.459 27.8121 180.68 31.5834 180.68 36.2354C180.68 40.8875 184.459 44.6587 189.122 44.6587Z" fill="#FFB6B6"/>
<path d="M199.299 33.9375C198.799 32.3832 197.429 31.0682 195.802 30.8964C195.925 29.8641 195.762 28.8179 195.331 27.8716C194.899 26.9253 194.216 26.1153 193.355 25.5297C192.494 24.944 191.489 24.6053 190.448 24.5503C189.408 24.4953 188.372 24.7262 187.454 25.2178C187.259 24.984 187.007 24.8043 186.722 24.6962C186.437 24.5882 186.129 24.5554 185.828 24.601C185.225 24.7001 184.657 24.9484 184.175 25.3233C182.979 26.1962 182.043 27.3762 181.466 28.738C180.888 30.0997 180.692 31.5921 180.897 33.0563C180.894 32.3135 181.224 33.7505 182.169 33.8775C182.957 34.0357 183.707 34.3444 184.378 34.7866C185.049 35.2288 185.796 35.5416 186.583 35.7086C187.376 35.8244 187.581 38.9979 187.014 41.0418C186.906 41.4292 186.852 41.9489 187.21 42.1335C187.65 42.3609 188.096 41.7893 188.589 41.7336C188.81 41.7301 189.024 41.8124 189.185 41.9632C189.347 42.114 189.443 42.3215 189.455 42.5419C189.455 42.763 189.403 42.9811 189.302 43.1779C189.2 43.3747 189.054 43.5446 188.874 43.6734C188.511 43.9274 188.11 44.1213 187.686 44.2476L187.828 44.4492C187.953 44.6797 188.154 44.8598 188.397 44.9586C188.64 45.0574 188.909 45.0688 189.16 44.9909C189.725 45.6703 195.542 43.7837 195.826 42.5436C197.044 41.4484 198.056 40.1442 198.814 38.6929C199.57 37.2254 199.744 35.5269 199.299 33.9375Z" fill="#2F2E41"/>
<path d="M206.126 59.5913C206.009 60.5729 205.087 61.3055 204.118 61.5106C203.625 61.6052 203.12 61.6139 202.624 61.5363C202.139 61.4645 201.661 61.358 201.192 61.2176C200.612 61.0528 200.038 60.8672 199.47 60.6608C197.848 60.083 196.285 59.3533 194.801 58.4814C193.678 57.8277 192.604 57.0957 191.585 56.291C191.056 55.8734 190.543 55.4375 190.046 54.9833L190.667 55.2764C190.113 54.5328 189.558 53.7892 189.004 53.0456C188.468 52.3277 187.933 51.6098 187.4 50.8918C187.367 50.8479 187.341 50.8186 187.33 50.8039V50.8003C187.084 50.4743 186.842 50.1483 186.599 49.8223C185.869 48.8443 185.149 47.4084 185.99 46.5257C186.169 46.3538 186.387 46.2266 186.625 46.1547C186.863 46.0828 187.114 46.068 187.359 46.1117C187.623 46.1459 187.878 46.2278 188.112 46.3535C188.754 46.7684 189.299 47.317 189.709 47.9615C190.281 47.13 191.394 46.8223 192.4 46.9579C192.455 46.9615 192.506 46.9689 192.558 46.9762C193.604 47.1557 194.055 46.5916 194.962 47.1447C195.384 47.4011 195.641 48.7197 196.063 48.9761C196.302 49.1227 197.187 49.3424 197.429 49.4926C197.906 49.7856 197.785 50.8809 198.266 51.1739C198.622 51.39 199.577 50.8076 199.933 51.0237C200.307 51.2545 200.829 52.7782 201.203 53.0053C201.948 53.4632 202.547 52.6281 203.292 53.0823C204.25 53.672 205.271 54.3277 205.674 55.3752C206.031 56.2983 205.572 57.562 204.687 57.8257C205.11 57.8761 205.496 58.0884 205.765 58.4179C206.033 58.7474 206.163 59.1682 206.126 59.5913Z" fill="#E6E6E6"/>
<path opacity="0.2" d="M199.47 60.6608L199.378 61.5619C198.338 61.4619 197.314 61.2318 196.331 60.877C195.038 60.4436 193.915 59.6111 193.127 58.4997C192.627 57.7525 192.106 57.0089 191.585 56.291C190.718 55.0896 189.859 53.9687 189.147 53.0567C188.277 51.9541 187.624 51.1556 187.4 50.8919C187.367 50.8479 187.341 50.8186 187.33 50.804L187.319 50.793L187.33 50.8003C191.692 56.3088 195.812 59.4852 199.595 59.4081C199.595 59.4081 200.039 60.866 199.47 60.6608Z" fill="black"/>
<path d="M159.552 16.549C159.445 16.9631 159.43 17.3957 159.508 17.8163C159.586 18.2369 159.756 18.6352 160.005 18.9833C160.254 19.3313 160.577 19.6206 160.95 19.8308C161.324 20.041 161.739 20.1669 162.166 20.1997L167.046 38.0617L170.66 34.0375L165.359 17.2991C165.367 16.5789 165.11 15.881 164.636 15.3375C164.163 14.7941 163.506 14.4429 162.79 14.3504C162.074 14.2579 161.349 14.4307 160.752 14.8359C160.156 15.2411 159.729 15.8507 159.552 16.549Z" fill="#FFB8B8"/>
<path d="M188.204 62.2249L188.171 60.5986L185.094 54.7782L184.98 54.5658L184.973 54.5548L182.612 50.0934L171.222 28.5459L169.998 28.0976L170.06 26.3473L169.998 24.4347L168.529 23.4516L167.902 22.2662L167.014 22.519H167.01L166.984 22.5263L163.1 23.6142H163.097L162.289 24.0684L161.555 26.2661L161.394 27.3066L161.555 29.1965L163.39 29.5628L162.782 31.5006L164.628 37.0754C166.937 46.8187 170.09 55.2288 175.535 60.0308L175.982 60.7634L179.525 66.5472C180.008 67.3383 180.716 67.9689 181.558 68.3594C182.4 68.7499 183.339 68.8828 184.257 68.7412H184.261C184.884 68.6447 185.481 68.4229 186.016 68.0893C186.509 67.7857 186.94 67.3917 187.286 66.9281C187.918 66.0899 188.253 65.0652 188.237 64.0161L188.204 62.2249Z" fill="#E6E6E6"/>
<path d="M30.701 56.302C30.6949 50.7959 32.8033 45.4968 36.5926 41.494L23.5882 23.6354C23.0529 22.8996 22.365 22.2876 21.5713 21.841C20.7776 21.3944 19.8968 21.1237 18.9888 21.0474C18.0808 20.971 17.1669 21.0908 16.3095 21.3985C15.4521 21.7063 14.6712 22.1948 14.02 22.8307C9.56527 27.1636 6.02867 32.3455 3.62024 38.0686C1.21182 43.7918 -0.0193009 49.9396 1.00823e-05 56.1468C4.63544e-05 58.4908 0.175189 60.8315 0.523975 63.1496C0.660806 64.066 0.996347 64.9417 1.50721 65.7154C2.01807 66.4892 2.69195 67.1425 3.48185 67.6297C4.26283 68.112 5.13986 68.4185 6.05177 68.5278C6.96368 68.6371 7.88851 68.5466 8.76177 68.2626L31.2164 60.983C30.8747 59.446 30.7019 57.8764 30.701 56.302Z" fill="#F2F2F2"/>
<path d="M31.8952 63.3783L8.5506 70.9465C7.68664 71.2251 6.89281 71.6858 6.22289 72.2973C5.55298 72.9089 5.02263 73.6569 4.66781 74.4908C4.31298 75.3247 4.14195 76.225 4.16631 77.1306C4.19068 78.0363 4.40987 78.9261 4.80902 79.7398C8.13349 86.4693 13.0342 92.3005 19.0961 96.7397C25.158 101.179 32.2027 104.095 39.6338 105.242C40.5388 105.381 41.4632 105.323 42.3436 105.072C43.2239 104.821 44.0394 104.382 44.7341 103.787C45.4279 103.194 45.9847 102.457 46.3663 101.629C46.7479 100.8 46.9453 99.8989 46.9449 98.987V77.2321C43.4874 76.337 40.3048 74.6042 37.6795 72.1875C35.0542 69.7708 33.0673 66.7449 31.8952 63.3783Z" fill="#E6E6E6"/>
<path d="M102.099 76.971C101.704 76.0372 101.113 75.1991 100.366 74.5136C99.6177 73.8281 98.7307 73.3113 97.7648 72.9983L72.3045 64.7443C70.8183 68.2317 68.4397 71.2683 65.4071 73.5499C62.3744 75.8315 58.7942 77.278 55.0249 77.7446V104.213C55.0255 105.228 55.2461 106.232 55.6717 107.155C56.0973 108.078 56.7179 108.899 57.4909 109.56C58.2638 110.221 59.1709 110.708 60.1501 110.987C61.1292 111.266 62.1572 111.33 63.1636 111.176C71.4358 109.899 79.2778 106.653 86.0259 101.711C92.774 96.7693 98.2293 90.2781 101.93 82.787C102.375 81.8865 102.62 80.9009 102.65 79.8973C102.679 78.8937 102.491 77.8957 102.099 76.971Z" fill="#FFD100"/>
<path d="M95.7731 16.2609C95.0483 15.5529 94.179 15.009 93.2245 14.6664C92.27 14.3238 91.2527 14.1905 90.242 14.2755C89.2312 14.3605 88.2506 14.6618 87.3671 15.159C86.4835 15.6562 85.7177 16.3375 85.1218 17.1565L67.7152 41.0612C69.7177 43.064 71.3052 45.4408 72.387 48.0558C73.4689 50.6709 74.0238 53.4729 74.0203 56.3019C74.0203 56.8283 73.9948 57.3482 73.9577 57.8651L101.627 66.8353C102.605 67.1504 103.64 67.2489 104.661 67.1239C105.681 66.9989 106.662 66.6535 107.535 66.1117C108.408 65.5699 109.152 64.8447 109.715 63.9867C110.279 63.1286 110.648 62.1584 110.797 61.1435C111.185 58.563 111.38 55.9571 111.38 53.3476C111.402 46.4379 110.031 39.5944 107.35 33.2234C104.669 26.8525 100.732 21.0841 95.7731 16.2609Z" fill="#FFEE32"/>
<path d="M52.3607 34.6909C56.0872 34.6867 59.7511 35.6466 62.9947 37.477L73.619 22.8867C74.1605 22.1437 74.5341 21.2922 74.7138 20.3912C74.8935 19.4901 74.8751 18.5608 74.6599 17.6675C74.4515 16.7912 74.0551 15.9705 73.4979 15.2619C72.9407 14.5534 72.2361 13.9739 71.4326 13.5635C64.8733 10.235 57.6204 8.49499 50.2615 8.4843C42.9026 8.47361 35.6446 10.1926 29.0756 13.502C28.2472 13.919 27.5195 14.5108 26.9431 15.2363C26.3666 15.9618 25.9551 16.8037 25.7371 17.7036C25.5222 18.5907 25.503 19.5138 25.6811 20.4089C25.8592 21.3041 26.2303 22.1499 26.7686 22.8878L38.8209 39.4394C42.6583 36.3604 47.4364 34.6846 52.3607 34.6909Z" fill="#E6E6E6"/>
</g>
<defs>
<clipPath id="clip0_10_249">
<rect width="253" height="203" fill="white"/>
</clipPath>
</defs>
</svg>
