<svg width="52" height="52" viewBox="0 0 52 52" fill="none" xmlns="http://www.w3.org/2000/svg">
<path fill-rule="evenodd" clip-rule="evenodd" d="M0 26C0 11.6406 11.6406 0 26 0C40.3594 0 52 11.6406 52 26C52 40.3594 40.3594 52 26 52C11.6406 52 0 40.3594 0 26ZM13 26.2722C13 19.1163 18.8042 13.312 25.9602 13.312C33.1162 13.312 38.9205 19.1163 39 26.2722C39 31.997 35.3425 36.8472 30.1743 38.5964C29.5382 38.6759 29.2997 38.2784 29.2997 37.9603V34.3823C29.2997 33.1897 28.9022 32.3946 28.4251 31.997C31.2875 31.679 34.3089 30.6453 34.3089 25.6362C34.3089 24.205 33.7523 23.0123 32.9572 22.1377C32.9635 22.1127 32.9722 22.0814 32.9826 22.0439C33.1043 21.6048 33.4575 20.3306 32.7981 18.7187C32.7981 18.7187 31.685 18.4007 29.2201 20.0704C28.1866 19.8319 27.0733 19.6729 25.9602 19.6729C24.8471 19.6729 23.734 19.7524 22.7003 20.0704C20.2354 18.4007 19.1223 18.7187 19.1223 18.7187C18.4196 20.4365 18.867 21.7709 18.9587 22.0442L18.9633 22.0582C18.0886 23.0123 17.6116 24.1255 17.6116 25.5567C17.6116 30.5658 20.6331 31.679 23.4955 31.997C23.1774 32.3151 22.7799 32.8716 22.7003 33.7463C21.9847 34.0643 20.156 34.6209 18.9633 32.6331C18.9633 32.6331 18.2477 31.3609 16.9755 31.2814C16.9755 31.2814 15.7034 31.2814 16.8961 32.0765C16.8961 32.0765 17.7707 32.4741 18.3272 33.9848C18.3272 33.9848 19.1223 36.5291 22.7003 35.734V37.9603C22.7003 38.2784 22.4618 38.6759 21.8257 38.5964C16.737 36.8472 13 31.997 13 26.2722Z" fill="#FFD100"/>
</svg>
