<svg width="398" height="310" viewBox="0 0 398 310" fill="none" xmlns="http://www.w3.org/2000/svg">
<g clip-path="url(#clip0_12_438)">
<path d="M330.535 133.692C330.535 133.692 321.19 138.889 323.88 144.806C326.57 150.724 364.768 145.882 364.768 145.882C364.768 145.882 362.078 137.813 357.236 136.199C352.394 134.585 330.535 133.692 330.535 133.692Z" fill="#FFD100"/>
<path d="M326.892 135.077C328.771 133.857 330.858 132.993 333.051 132.531C340.362 130.759 348.017 130.998 355.204 133.222L355.072 133.115C358.134 134.731 360.822 136.972 362.963 139.693L326.892 135.077Z" fill="#CCCCCC"/>
<path d="M368.276 160.525C368.147 162.456 368.018 164.385 367.889 166.313C367.712 170.351 367.271 174.372 366.57 178.352C365.914 181.682 364.87 184.985 363.004 187.82C361.137 190.65 358.366 192.99 355.084 193.85C353.069 194.333 350.974 194.379 348.94 193.985C345.104 191.806 342.506 194.593 346.336 197.428C347.205 198.07 348.109 198.664 349.042 199.208L350.78 226.035L318.5 219.042L324.8 183.355C323.835 182.478 322.953 181.515 322.164 180.477C318.554 175.684 317.311 169.439 317.548 163.446C317.79 157.448 319.388 151.6 320.975 145.817C321.38 144.249 321.868 142.702 322.438 141.186C323.143 141.476 323.859 141.74 324.585 141.96C329.228 143.37 334.161 143.483 339.014 143.477C347.649 143.472 356.273 143.135 364.887 142.466C366.866 145.724 368.068 149.395 368.4 153.193C368.539 155.636 368.497 158.087 368.276 160.525Z" fill="#CCCCCC"/>
<path d="M230.215 233.349L279.91 237.76L280.443 237.808V25.7836C280.265 25.6599 280.088 25.5362 279.91 25.4124C269.553 18.1689 258.35 12.2182 246.549 7.69263L244.01 42.7127L243.778 45.9188L241.266 80.6484L240.491 91.3319L230.307 232.111L230.215 233.349Z" fill="#E6E6E6"/>
<path d="M107.32 21.8351C106.965 22.061 106.61 22.287 106.255 22.5237V237.808L107.32 237.711L156.477 233.349L156.386 232.111L146.201 91.3318L145.427 80.6483L142.914 45.9188L142.683 42.7126L140.02 5.9873C128.535 9.96773 117.56 15.287 107.32 21.8351Z" fill="#E6E6E6"/>
<path d="M106.255 22.5238C105.539 22.9864 104.824 23.4598 104.119 23.9386V240.745C104.119 246.163 107.331 250.703 111.624 251.859C112.326 252.049 113.049 252.145 113.776 252.144H273.454C274.179 252.146 274.901 252.05 275.601 251.859C277.197 251.417 278.643 250.55 279.787 249.353C281.967 247.022 283.159 243.937 283.111 240.745V27.7095C282.229 27.0586 281.341 26.4131 280.443 25.7837C280.265 25.66 280.088 25.5362 279.91 25.4125V240.745C279.912 241.443 279.828 242.139 279.663 242.817C278.904 246.017 276.403 248.363 273.454 248.363H113.776C110.215 248.363 107.32 244.947 107.32 240.745V21.8352C106.965 22.0611 106.61 22.2871 106.255 22.5238Z" fill="#E6E6E6"/>
<path d="M281.511 42.7148H105.718V45.9205H281.511V42.7148Z" fill="#E6E6E6"/>
<path d="M227.671 1.82366C226.605 1.56007 225.54 1.31261 224.464 1.0813V88.1257H227.671V1.82366Z" fill="#E6E6E6"/>
<path d="M162.766 0C161.696 0.199039 160.625 0.40345 159.56 0.624007V88.1257H162.766V0Z" fill="#E6E6E6"/>
<path d="M71.2526 246.534C71.2518 248.373 71.6043 250.196 72.2909 251.902C72.5546 252.564 72.8694 253.204 73.2324 253.817C73.7013 254.617 74.2453 255.37 74.8572 256.066C76.2087 257.606 77.8735 258.84 79.7402 259.685C81.6069 260.53 83.6326 260.967 85.6817 260.967H296.206C300.033 260.967 303.703 259.447 306.409 256.741C309.115 254.035 310.635 250.365 310.635 246.539C310.635 242.713 309.115 239.043 306.409 236.337C303.703 233.631 300.033 232.111 296.206 232.111H85.6817C81.8569 232.115 78.1898 233.636 75.4848 236.339C72.7798 239.043 71.2578 242.709 71.2526 246.534Z" fill="#E6E6E6"/>
<path d="M105.718 91.333L280.442 91.333V80.6477L105.718 80.6477V91.333Z" fill="#E6E6E6"/>
<path d="M200.561 83.3191H185.6C185.6 82.5473 185.752 81.7831 186.047 81.0701C186.342 80.3571 186.775 79.7092 187.321 79.1635C187.867 78.6178 188.515 78.1849 189.228 77.8895C189.941 77.5942 190.705 77.4422 191.477 77.4422H194.683C196.242 77.4422 197.737 78.0614 198.839 79.1635C199.942 80.2656 200.561 81.7604 200.561 83.3191H200.561Z" fill="#E6E6E6"/>
<path d="M0 254.775C4.67374 260.312 9.72891 265.516 15.1285 270.348H382.356C387.756 265.516 392.811 260.312 397.485 254.775H0Z" fill="#3F3D56"/>
<path d="M99.616 202.697V257.868H138.271V202.697C138.272 202.3 138.145 201.913 137.91 201.594C137.675 201.274 137.343 201.039 136.964 200.921C136.785 200.862 136.598 200.833 136.41 200.835H101.483C101.238 200.835 100.995 200.883 100.769 200.976C100.543 201.069 100.337 201.206 100.164 201.379C99.9902 201.552 99.8526 201.757 99.7586 201.983C99.6647 202.209 99.6162 202.452 99.616 202.697ZM114.701 221.654C114.712 220.566 115.151 219.526 115.924 218.761C116.696 217.995 117.74 217.566 118.828 217.566C119.916 217.566 120.96 217.995 121.732 218.761C122.505 219.526 122.944 220.566 122.954 221.654V228.055C122.949 229.146 122.512 230.19 121.738 230.959C120.965 231.728 119.919 232.16 118.828 232.16C117.737 232.16 116.691 231.728 115.918 230.959C115.144 230.19 114.707 229.146 114.701 228.055V221.654Z" fill="#2F2E41"/>
<path d="M99.4976 256.104V261.424C99.4984 261.699 99.6079 261.964 99.8023 262.159C99.9967 262.354 100.26 262.465 100.536 262.467H137.351C137.627 262.466 137.891 262.355 138.086 262.16C138.28 261.964 138.39 261.7 138.39 261.424V256.104H99.4976Z" fill="#3F3D56"/>
<path d="M38.8059 119.574V220.309C38.8069 221.593 39.3174 222.824 40.2252 223.731C41.133 224.639 42.364 225.149 43.6479 225.15H192.943C194.227 225.149 195.458 224.639 196.365 223.731C197.273 222.824 197.784 221.593 197.785 220.309V119.574C197.782 118.291 197.27 117.062 196.363 116.156C195.455 115.249 194.225 114.739 192.943 114.738H43.6479C42.3652 114.739 41.1353 115.249 40.2278 116.156C39.3203 117.062 38.809 118.291 38.8059 119.574Z" fill="#3F3D56"/>
<path d="M42.3082 120.827V219.066C42.3094 219.752 42.5824 220.41 43.0675 220.895C43.5525 221.38 44.21 221.653 44.896 221.654H191.7C192.386 221.653 193.043 221.38 193.528 220.895C194.013 220.41 194.286 219.752 194.288 219.066V120.827C194.288 120.141 194.015 119.482 193.53 118.996C193.045 118.51 192.387 118.236 191.7 118.234H44.896C44.2092 118.236 43.5511 118.51 43.0659 118.996C42.5808 119.482 42.3083 120.141 42.3082 120.827Z" fill="#FFD100"/>
<path d="M72.2426 263.721C72.392 263.908 72.5819 264.059 72.7981 264.163C73.0143 264.266 73.2511 264.319 73.4907 264.318H160.83C161.068 264.318 161.304 264.264 161.52 264.161C161.735 264.058 161.925 263.909 162.076 263.723C162.226 263.538 162.333 263.321 162.39 263.089C162.446 262.857 162.45 262.615 162.401 262.381L161.045 255.942C160.989 255.68 160.868 255.435 160.693 255.231C160.518 255.027 160.295 254.87 160.044 254.775C159.862 254.704 159.669 254.667 159.474 254.667H74.8411C74.646 254.667 74.4525 254.704 74.2708 254.775C74.0199 254.87 73.7969 255.027 73.6221 255.231C73.4473 255.435 73.3263 255.68 73.2702 255.942L71.9144 262.381C71.8662 262.615 71.8706 262.856 71.9273 263.088C71.9841 263.32 72.0918 263.536 72.2426 263.721Z" fill="#2F2E41"/>
<path d="M156.426 257.441H158.591C158.736 257.441 158.853 257.323 158.853 257.178V256.089C158.853 255.944 158.736 255.827 158.591 255.827H156.426C156.281 255.827 156.163 255.944 156.163 256.089V257.178C156.163 257.323 156.281 257.441 156.426 257.441Z" fill="#3F3D56"/>
<path d="M151.046 257.441H153.211C153.356 257.441 153.473 257.323 153.473 257.178V256.089C153.473 255.944 153.356 255.827 153.211 255.827H151.046C150.901 255.827 150.783 255.944 150.783 256.089V257.178C150.783 257.323 150.901 257.441 151.046 257.441Z" fill="#3F3D56"/>
<path d="M145.666 257.441H147.831C147.976 257.441 148.094 257.323 148.094 257.178V256.089C148.094 255.944 147.976 255.827 147.831 255.827H145.666C145.521 255.827 145.403 255.944 145.403 256.089V257.178C145.403 257.323 145.521 257.441 145.666 257.441Z" fill="#3F3D56"/>
<path d="M140.286 257.441H142.451C142.596 257.441 142.714 257.323 142.714 257.178V256.089C142.714 255.944 142.596 255.827 142.451 255.827H140.286C140.141 255.827 140.023 255.944 140.023 256.089V257.178C140.023 257.323 140.141 257.441 140.286 257.441Z" fill="#3F3D56"/>
<path d="M134.906 257.441H137.071C137.216 257.441 137.333 257.323 137.333 257.178V256.089C137.333 255.944 137.216 255.827 137.071 255.827H134.906C134.761 255.827 134.644 255.944 134.644 256.089V257.178C134.644 257.323 134.761 257.441 134.906 257.441Z" fill="#3F3D56"/>
<path d="M129.526 257.441H131.691C131.836 257.441 131.953 257.323 131.953 257.178V256.089C131.953 255.944 131.836 255.827 131.691 255.827H129.526C129.381 255.827 129.264 255.944 129.264 256.089V257.178C129.264 257.323 129.381 257.441 129.526 257.441Z" fill="#3F3D56"/>
<path d="M124.146 257.441H126.311C126.456 257.441 126.573 257.323 126.573 257.178V256.089C126.573 255.944 126.456 255.827 126.311 255.827H124.146C124.001 255.827 123.883 255.944 123.883 256.089V257.178C123.883 257.323 124.001 257.441 124.146 257.441Z" fill="#3F3D56"/>
<path d="M118.766 257.441H120.931C121.076 257.441 121.193 257.323 121.193 257.178V256.089C121.193 255.944 121.076 255.827 120.931 255.827H118.766C118.621 255.827 118.504 255.944 118.504 256.089V257.178C118.504 257.323 118.621 257.441 118.766 257.441Z" fill="#3F3D56"/>
<path d="M113.386 257.441H115.551C115.696 257.441 115.813 257.323 115.813 257.178V256.089C115.813 255.944 115.696 255.827 115.551 255.827H113.386C113.241 255.827 113.124 255.944 113.124 256.089V257.178C113.124 257.323 113.241 257.441 113.386 257.441Z" fill="#3F3D56"/>
<path d="M108.006 257.441H110.171C110.316 257.441 110.433 257.323 110.433 257.178V256.089C110.433 255.944 110.316 255.827 110.171 255.827H108.006C107.861 255.827 107.743 255.944 107.743 256.089V257.178C107.743 257.323 107.861 257.441 108.006 257.441Z" fill="#3F3D56"/>
<path d="M102.626 257.441H104.791C104.936 257.441 105.053 257.323 105.053 257.178V256.089C105.053 255.944 104.936 255.827 104.791 255.827H102.626C102.481 255.827 102.363 255.944 102.363 256.089V257.178C102.363 257.323 102.481 257.441 102.626 257.441Z" fill="#3F3D56"/>
<path d="M97.2461 257.441H99.4108C99.5559 257.441 99.6735 257.323 99.6735 257.178V256.089C99.6735 255.944 99.5559 255.827 99.4108 255.827H97.2461C97.1011 255.827 96.9835 255.944 96.9835 256.089V257.178C96.9835 257.323 97.1011 257.441 97.2461 257.441Z" fill="#3F3D56"/>
<path d="M91.8662 257.441H94.0309C94.176 257.441 94.2936 257.323 94.2936 257.178V256.089C94.2936 255.944 94.176 255.827 94.0309 255.827H91.8662C91.7212 255.827 91.6036 255.944 91.6036 256.089V257.178C91.6036 257.323 91.7212 257.441 91.8662 257.441Z" fill="#3F3D56"/>
<path d="M86.4862 257.441H88.6509C88.796 257.441 88.9136 257.323 88.9136 257.178V256.089C88.9136 255.944 88.796 255.827 88.6509 255.827H86.4862C86.3412 255.827 86.2236 255.944 86.2236 256.089V257.178C86.2236 257.323 86.3412 257.441 86.4862 257.441Z" fill="#3F3D56"/>
<path d="M81.1062 257.441H83.2709C83.416 257.441 83.5336 257.323 83.5336 257.178V256.089C83.5336 255.944 83.416 255.827 83.2709 255.827H81.1062C80.9612 255.827 80.8436 255.944 80.8436 256.089V257.178C80.8436 257.323 80.9612 257.441 81.1062 257.441Z" fill="#3F3D56"/>
<path d="M75.7262 257.441H77.8909C78.036 257.441 78.1536 257.323 78.1536 257.178V256.089C78.1536 255.944 78.036 255.827 77.8909 255.827H75.7262C75.5812 255.827 75.4636 255.944 75.4636 256.089V257.178C75.4636 257.323 75.5812 257.441 75.7262 257.441Z" fill="#3F3D56"/>
<path d="M156.49 260.13H158.654C158.799 260.13 158.917 260.013 158.917 259.868V258.779C158.917 258.634 158.799 258.517 158.654 258.517H156.49C156.345 258.517 156.227 258.634 156.227 258.779V259.868C156.227 260.013 156.345 260.13 156.49 260.13Z" fill="#3F3D56"/>
<path d="M151.11 260.13H153.274C153.419 260.13 153.537 260.013 153.537 259.868V258.779C153.537 258.634 153.419 258.517 153.274 258.517H151.11C150.965 258.517 150.847 258.634 150.847 258.779V259.868C150.847 260.013 150.965 260.13 151.11 260.13Z" fill="#3F3D56"/>
<path d="M145.73 260.13H147.894C148.039 260.13 148.157 260.013 148.157 259.868V258.779C148.157 258.634 148.039 258.517 147.894 258.517H145.73C145.585 258.517 145.467 258.634 145.467 258.779V259.868C145.467 260.013 145.585 260.13 145.73 260.13Z" fill="#3F3D56"/>
<path d="M140.35 260.13H142.514C142.66 260.13 142.777 260.013 142.777 259.868V258.779C142.777 258.634 142.66 258.517 142.514 258.517H140.35C140.205 258.517 140.087 258.634 140.087 258.779V259.868C140.087 260.013 140.205 260.13 140.35 260.13Z" fill="#3F3D56"/>
<path d="M134.97 260.13H137.134C137.28 260.13 137.397 260.013 137.397 259.868V258.779C137.397 258.634 137.28 258.517 137.134 258.517H134.97C134.825 258.517 134.707 258.634 134.707 258.779V259.868C134.707 260.013 134.825 260.13 134.97 260.13Z" fill="#3F3D56"/>
<path d="M129.59 260.13H131.754C131.899 260.13 132.017 260.013 132.017 259.868V258.779C132.017 258.634 131.899 258.517 131.754 258.517H129.59C129.445 258.517 129.327 258.634 129.327 258.779V259.868C129.327 260.013 129.445 260.13 129.59 260.13Z" fill="#3F3D56"/>
<path d="M124.21 260.13H126.374C126.519 260.13 126.637 260.013 126.637 259.868V258.779C126.637 258.634 126.519 258.517 126.374 258.517H124.21C124.065 258.517 123.947 258.634 123.947 258.779V259.868C123.947 260.013 124.065 260.13 124.21 260.13Z" fill="#3F3D56"/>
<path d="M118.83 260.13H120.994C121.139 260.13 121.257 260.013 121.257 259.868V258.779C121.257 258.634 121.139 258.517 120.994 258.517H118.83C118.685 258.517 118.567 258.634 118.567 258.779V259.868C118.567 260.013 118.685 260.13 118.83 260.13Z" fill="#3F3D56"/>
<path d="M113.45 260.13H115.614C115.759 260.13 115.877 260.013 115.877 259.868V258.779C115.877 258.634 115.759 258.517 115.614 258.517H113.45C113.305 258.517 113.187 258.634 113.187 258.779V259.868C113.187 260.013 113.305 260.13 113.45 260.13Z" fill="#3F3D56"/>
<path d="M108.07 260.13H110.234C110.379 260.13 110.497 260.013 110.497 259.868V258.779C110.497 258.634 110.379 258.517 110.234 258.517H108.07C107.925 258.517 107.807 258.634 107.807 258.779V259.868C107.807 260.013 107.925 260.13 108.07 260.13Z" fill="#3F3D56"/>
<path d="M102.69 260.13H104.854C104.999 260.13 105.117 260.013 105.117 259.868V258.779C105.117 258.634 104.999 258.517 104.854 258.517H102.69C102.545 258.517 102.427 258.634 102.427 258.779V259.868C102.427 260.013 102.545 260.13 102.69 260.13Z" fill="#3F3D56"/>
<path d="M97.3097 260.13H99.4744C99.6195 260.13 99.7371 260.013 99.7371 259.868V258.779C99.7371 258.634 99.6195 258.517 99.4744 258.517H97.3097C97.1647 258.517 97.0471 258.634 97.0471 258.779V259.868C97.0471 260.013 97.1647 260.13 97.3097 260.13Z" fill="#3F3D56"/>
<path d="M91.9297 260.13H94.0944C94.2395 260.13 94.3571 260.013 94.3571 259.868V258.779C94.3571 258.634 94.2395 258.517 94.0944 258.517H91.9297C91.7846 258.517 91.6671 258.634 91.6671 258.779V259.868C91.6671 260.013 91.7846 260.13 91.9297 260.13Z" fill="#3F3D56"/>
<path d="M86.5497 260.13H88.7144C88.8595 260.13 88.9771 260.013 88.9771 259.868V258.779C88.9771 258.634 88.8595 258.517 88.7144 258.517H86.5497C86.4046 258.517 86.287 258.634 86.287 258.779V259.868C86.287 260.013 86.4046 260.13 86.5497 260.13Z" fill="#3F3D56"/>
<path d="M81.1698 260.13H83.3345C83.4796 260.13 83.5972 260.013 83.5972 259.868V258.779C83.5972 258.634 83.4796 258.517 83.3345 258.517H81.1698C81.0248 258.517 80.9072 258.634 80.9072 258.779V259.868C80.9072 260.013 81.0248 260.13 81.1698 260.13Z" fill="#3F3D56"/>
<path d="M75.7898 260.13H77.9545C78.0996 260.13 78.2172 260.013 78.2172 259.868V258.779C78.2172 258.634 78.0996 258.517 77.9545 258.517H75.7898C75.6447 258.517 75.5272 258.634 75.5272 258.779V259.868C75.5272 260.013 75.6447 260.13 75.7898 260.13Z" fill="#3F3D56"/>
<path d="M111.836 263.358H132.83C132.975 263.358 133.093 263.241 133.093 263.096V262.007C133.093 261.862 132.975 261.744 132.83 261.744H111.836C111.691 261.744 111.573 261.862 111.573 262.007V263.096C111.573 263.241 111.691 263.358 111.836 263.358Z" fill="#3F3D56"/>
<path d="M52.273 131.767H189.637C189.78 131.764 189.916 131.705 190.015 131.603C190.115 131.501 190.171 131.364 190.171 131.221C190.171 131.078 190.115 130.941 190.015 130.839C189.916 130.737 189.78 130.678 189.637 130.675H52.273C52.1302 130.678 51.9943 130.737 51.8945 130.839C51.7946 130.941 51.7386 131.078 51.7386 131.221C51.7386 131.364 51.7946 131.501 51.8945 131.603C51.9943 131.705 52.1302 131.764 52.273 131.767Z" fill="#3F3D56"/>
<path d="M180.286 127.886C182.054 127.886 183.488 126.421 183.488 124.614C183.488 122.806 182.054 121.341 180.286 121.341C178.518 121.341 177.085 122.806 177.085 124.614C177.085 126.421 178.518 127.886 180.286 127.886Z" fill="#3F3D56"/>
<path d="M169.227 127.886C170.995 127.886 172.429 126.421 172.429 124.614C172.429 122.806 170.995 121.341 169.227 121.341C167.459 121.341 166.026 122.806 166.026 124.614C166.026 126.421 167.459 127.886 169.227 127.886Z" fill="#3F3D56"/>
<path d="M158.168 127.886C159.936 127.886 161.369 126.421 161.369 124.614C161.369 122.806 159.936 121.341 158.168 121.341C156.4 121.341 154.967 122.806 154.967 124.614C154.967 126.421 156.4 127.886 158.168 127.886Z" fill="#3F3D56"/>
<path d="M58.346 122.748C58.3456 122.825 58.3605 122.902 58.3897 122.973C58.419 123.045 58.4621 123.11 58.5166 123.165C58.571 123.22 58.6358 123.264 58.7071 123.294C58.7785 123.324 58.855 123.339 58.9324 123.339H66.7872C66.9424 123.336 67.0901 123.272 67.1987 123.161C67.3072 123.049 67.3679 122.9 67.3679 122.745C67.3679 122.59 67.3072 122.441 67.1987 122.33C67.0901 122.218 66.9424 122.154 66.7872 122.151H58.9324C58.7756 122.153 58.6259 122.216 58.516 122.328C58.4061 122.44 58.345 122.591 58.346 122.748Z" fill="#3F3D56"/>
<path d="M58.346 124.98C58.3456 125.058 58.3605 125.134 58.3897 125.206C58.419 125.277 58.4621 125.343 58.5166 125.398C58.571 125.452 58.6358 125.496 58.7071 125.526C58.7785 125.556 58.855 125.572 58.9324 125.572H66.7872C66.9426 125.568 67.0904 125.504 67.1991 125.393C67.3078 125.282 67.3687 125.133 67.3687 124.977C67.3687 124.822 67.3078 124.673 67.1991 124.562C67.0904 124.451 66.9426 124.386 66.7872 124.383H58.9324C58.7756 124.385 58.6259 124.449 58.516 124.561C58.4061 124.673 58.345 124.823 58.346 124.98Z" fill="#3F3D56"/>
<path d="M58.346 127.207C58.345 127.364 58.4061 127.515 58.516 127.627C58.6259 127.739 58.7756 127.802 58.9324 127.804H66.7872C66.9424 127.801 67.0901 127.737 67.1987 127.625C67.3072 127.514 67.3679 127.365 67.3679 127.21C67.3679 127.055 67.3072 126.905 67.1987 126.794C67.0901 126.683 66.9424 126.619 66.7872 126.615H58.9324C58.855 126.616 58.7785 126.631 58.7071 126.661C58.6358 126.691 58.571 126.735 58.5166 126.79C58.4621 126.845 58.419 126.91 58.3897 126.982C58.3605 127.053 58.3456 127.13 58.346 127.207Z" fill="#3F3D56"/>
<path d="M60.7736 144.461H57.9511C57.0954 144.461 56.4017 145.154 56.4017 146.01C56.4017 146.866 57.0954 147.559 57.9511 147.559H60.7736C61.6293 147.559 62.323 146.866 62.323 146.01C62.323 145.154 61.6293 144.461 60.7736 144.461Z" fill="#E6E6E6"/>
<path d="M93.0535 144.461H90.2311C89.3753 144.461 88.6816 145.154 88.6816 146.01C88.6816 146.866 89.3753 147.559 90.2311 147.559H93.0535C93.9092 147.559 94.6029 146.866 94.6029 146.01C94.6029 145.154 93.9092 144.461 93.0535 144.461Z" fill="#E6E6E6"/>
<path d="M102.199 144.461H99.3771C98.5213 144.461 97.8276 145.154 97.8276 146.01C97.8276 146.866 98.5213 147.559 99.3771 147.559H102.199C103.055 147.559 103.749 146.866 103.749 146.01C103.749 145.154 103.055 144.461 102.199 144.461Z" fill="#E6E6E6"/>
<path d="M84.2732 144.202H66.7313C65.8756 144.202 65.1819 144.896 65.1819 145.752C65.1819 146.607 65.8756 147.301 66.7313 147.301H84.2732C85.1289 147.301 85.8226 146.607 85.8226 145.752C85.8226 144.896 85.1289 144.202 84.2732 144.202Z" fill="#E6E6E6"/>
<path d="M127.313 144.202H109.771C108.916 144.202 108.222 144.896 108.222 145.752C108.222 146.607 108.916 147.301 109.771 147.301H127.313C128.169 147.301 128.863 146.607 128.863 145.752C128.863 144.896 128.169 144.202 127.313 144.202Z" fill="#E6E6E6"/>
<path d="M69.3815 151.454H66.5591C65.7033 151.454 65.0096 152.148 65.0096 153.003C65.0096 153.859 65.7033 154.553 66.5591 154.553H69.3815C70.2372 154.553 70.9309 153.859 70.9309 153.003C70.9309 152.148 70.2372 151.454 69.3815 151.454Z" fill="#E6E6E6"/>
<path d="M101.662 151.454H98.8391C97.9834 151.454 97.2897 152.148 97.2897 153.003C97.2897 153.859 97.9834 154.553 98.8391 154.553H101.662C102.517 154.553 103.211 153.859 103.211 153.003C103.211 152.148 102.517 151.454 101.662 151.454Z" fill="#E6E6E6"/>
<path d="M110.807 151.454H107.985C107.129 151.454 106.436 152.148 106.436 153.003C106.436 153.859 107.129 154.553 107.985 154.553H110.807C111.663 154.553 112.357 153.859 112.357 153.003C112.357 152.148 111.663 151.454 110.807 151.454Z" fill="#E6E6E6"/>
<path d="M92.8812 151.196H75.3393C74.4836 151.196 73.7899 151.889 73.7899 152.745C73.7899 153.601 74.4836 154.294 75.3393 154.294H92.8812C93.7369 154.294 94.4306 153.601 94.4306 152.745C94.4306 151.889 93.7369 151.196 92.8812 151.196Z" fill="#E6E6E6"/>
<path d="M135.921 151.196H118.379C117.524 151.196 116.83 151.889 116.83 152.745C116.83 153.601 117.524 154.294 118.379 154.294H135.921C136.777 154.294 137.471 153.601 137.471 152.745C137.471 151.889 136.777 151.196 135.921 151.196Z" fill="#E6E6E6"/>
<path d="M77.9895 158.447H75.1671C74.3114 158.447 73.6177 159.141 73.6177 159.997C73.6177 160.852 74.3114 161.546 75.1671 161.546H77.9895C78.8453 161.546 79.5389 160.852 79.5389 159.997C79.5389 159.141 78.8453 158.447 77.9895 158.447Z" fill="#E6E6E6"/>
<path d="M110.269 158.447H107.447C106.591 158.447 105.898 159.141 105.898 159.997C105.898 160.852 106.591 161.546 107.447 161.546H110.269C111.125 161.546 111.819 160.852 111.819 159.997C111.819 159.141 111.125 158.447 110.269 158.447Z" fill="#E6E6E6"/>
<path d="M119.415 158.447H116.593C115.737 158.447 115.044 159.141 115.044 159.997C115.044 160.852 115.737 161.546 116.593 161.546H119.415C120.271 161.546 120.965 160.852 120.965 159.997C120.965 159.141 120.271 158.447 119.415 158.447Z" fill="#E6E6E6"/>
<path d="M101.489 158.189H83.9474C83.0917 158.189 82.3979 158.883 82.3979 159.738C82.3979 160.594 83.0917 161.287 83.9474 161.287H101.489C102.345 161.287 103.039 160.594 103.039 159.738C103.039 158.883 102.345 158.189 101.489 158.189Z" fill="#E6E6E6"/>
<path d="M144.529 158.189H126.987C126.132 158.189 125.438 158.883 125.438 159.738C125.438 160.594 126.132 161.287 126.987 161.287H144.529C145.385 161.287 146.079 160.594 146.079 159.738C146.079 158.883 145.385 158.189 144.529 158.189Z" fill="#E6E6E6"/>
<path d="M86.5975 165.44H83.775C82.9193 165.44 82.2256 166.134 82.2256 166.99C82.2256 167.845 82.9193 168.539 83.775 168.539H86.5975C87.4532 168.539 88.1469 167.845 88.1469 166.99C88.1469 166.134 87.4532 165.44 86.5975 165.44Z" fill="#E6E6E6"/>
<path d="M118.877 165.44H116.055C115.199 165.44 114.506 166.134 114.506 166.99C114.506 167.845 115.199 168.539 116.055 168.539H118.877C119.733 168.539 120.427 167.845 120.427 166.99C120.427 166.134 119.733 165.44 118.877 165.44Z" fill="#E6E6E6"/>
<path d="M128.023 165.44H125.201C124.345 165.44 123.652 166.134 123.652 166.99C123.652 167.845 124.345 168.539 125.201 168.539H128.023C128.879 168.539 129.573 167.845 129.573 166.99C129.573 166.134 128.879 165.44 128.023 165.44Z" fill="#E6E6E6"/>
<path d="M110.097 165.182H92.5553C91.6996 165.182 91.0059 165.876 91.0059 166.731C91.0059 167.587 91.6996 168.281 92.5553 168.281H110.097C110.953 168.281 111.647 167.587 111.647 166.731C111.647 165.876 110.953 165.182 110.097 165.182Z" fill="#E6E6E6"/>
<path d="M93.0535 193.249H90.2311C89.3753 193.249 88.6816 193.942 88.6816 194.798C88.6816 195.654 89.3753 196.347 90.2311 196.347H93.0535C93.9092 196.347 94.6029 195.654 94.6029 194.798C94.6029 193.942 93.9092 193.249 93.0535 193.249Z" fill="#E6E6E6"/>
<path d="M102.199 193.249H99.3771C98.5213 193.249 97.8276 193.942 97.8276 194.798C97.8276 195.654 98.5213 196.347 99.3771 196.347H102.199C103.055 196.347 103.749 195.654 103.749 194.798C103.749 193.942 103.055 193.249 102.199 193.249Z" fill="#E6E6E6"/>
<path d="M127.313 193.507H109.771C108.916 193.507 108.222 194.201 108.222 195.056C108.222 195.912 108.916 196.606 109.771 196.606H127.313C128.169 196.606 128.863 195.912 128.863 195.056C128.863 194.201 128.169 193.507 127.313 193.507Z" fill="#E6E6E6"/>
<path d="M60.7736 193.249H57.9511C57.0954 193.249 56.4017 193.942 56.4017 194.798C56.4017 195.654 57.0954 196.347 57.9511 196.347H60.7736C61.6293 196.347 62.323 195.654 62.323 194.798C62.323 193.942 61.6293 193.249 60.7736 193.249Z" fill="#E6E6E6"/>
<path d="M84.2732 193.507H66.7313C65.8756 193.507 65.1819 194.201 65.1819 195.056C65.1819 195.912 65.8756 196.606 66.7313 196.606H84.2732C85.1289 196.606 85.8226 195.912 85.8226 195.056C85.8226 194.201 85.1289 193.507 84.2732 193.507Z" fill="#E6E6E6"/>
<path d="M69.3815 186.255H66.5591C65.7033 186.255 65.0096 186.949 65.0096 187.805C65.0096 188.66 65.7033 189.354 66.5591 189.354H69.3815C70.2372 189.354 70.9309 188.66 70.9309 187.805C70.9309 186.949 70.2372 186.255 69.3815 186.255Z" fill="#E6E6E6"/>
<path d="M101.662 186.255H98.8391C97.9834 186.255 97.2897 186.949 97.2897 187.805C97.2897 188.66 97.9834 189.354 98.8391 189.354H101.662C102.517 189.354 103.211 188.66 103.211 187.805C103.211 186.949 102.517 186.255 101.662 186.255Z" fill="#E6E6E6"/>
<path d="M110.807 186.255H107.985C107.129 186.255 106.436 186.949 106.436 187.805C106.436 188.66 107.129 189.354 107.985 189.354H110.807C111.663 189.354 112.357 188.66 112.357 187.805C112.357 186.949 111.663 186.255 110.807 186.255Z" fill="#E6E6E6"/>
<path d="M92.8812 186.514H75.3393C74.4836 186.514 73.7899 187.207 73.7899 188.063C73.7899 188.919 74.4836 189.612 75.3393 189.612H92.8812C93.7369 189.612 94.4306 188.919 94.4306 188.063C94.4306 187.207 93.7369 186.514 92.8812 186.514Z" fill="#E6E6E6"/>
<path d="M77.9895 179.262H75.1671C74.3114 179.262 73.6177 179.956 73.6177 180.811C73.6177 181.667 74.3114 182.361 75.1671 182.361H77.9895C78.8453 182.361 79.5389 181.667 79.5389 180.811C79.5389 179.956 78.8453 179.262 77.9895 179.262Z" fill="#E6E6E6"/>
<path d="M110.269 179.262H107.447C106.591 179.262 105.898 179.956 105.898 180.811C105.898 181.667 106.591 182.361 107.447 182.361H110.269C111.125 182.361 111.819 181.667 111.819 180.811C111.819 179.956 111.125 179.262 110.269 179.262Z" fill="#E6E6E6"/>
<path d="M119.415 179.262H116.593C115.737 179.262 115.044 179.956 115.044 180.811C115.044 181.667 115.737 182.361 116.593 182.361H119.415C120.271 182.361 120.965 181.667 120.965 180.811C120.965 179.956 120.271 179.262 119.415 179.262Z" fill="#E6E6E6"/>
<path d="M101.489 179.521H83.9474C83.0917 179.521 82.3979 180.214 82.3979 181.07C82.3979 181.925 83.0917 182.619 83.9474 182.619H101.489C102.345 182.619 103.039 181.925 103.039 181.07C103.039 180.214 102.345 179.521 101.489 179.521Z" fill="#E6E6E6"/>
<path d="M86.5975 172.269H83.775C82.9193 172.269 82.2256 172.963 82.2256 173.818C82.2256 174.674 82.9193 175.368 83.775 175.368H86.5975C87.4532 175.368 88.1469 174.674 88.1469 173.818C88.1469 172.963 87.4532 172.269 86.5975 172.269Z" fill="#E6E6E6"/>
<path d="M118.877 172.269H116.055C115.199 172.269 114.506 172.963 114.506 173.818C114.506 174.674 115.199 175.368 116.055 175.368H118.877C119.733 175.368 120.427 174.674 120.427 173.818C120.427 172.963 119.733 172.269 118.877 172.269Z" fill="#E6E6E6"/>
<path d="M128.023 172.269H125.201C124.345 172.269 123.652 172.963 123.652 173.818C123.652 174.674 124.345 175.368 125.201 175.368H128.023C128.879 175.368 129.573 174.674 129.573 173.818C129.573 172.963 128.879 172.269 128.023 172.269Z" fill="#E6E6E6"/>
<path d="M110.097 172.527H92.5553C91.6996 172.527 91.0059 173.221 91.0059 174.077C91.0059 174.932 91.6996 175.626 92.5553 175.626H110.097C110.953 175.626 111.647 174.932 111.647 174.077C111.647 173.221 110.953 172.527 110.097 172.527Z" fill="#E6E6E6"/>
<path d="M50.6257 294.276C50.9539 294.443 51.2875 294.61 51.6156 294.771C60.116 299.021 66.9163 301.436 76.2184 304.083C77.0038 295.314 77.7624 279.902 78.4995 270.348C78.6931 267.868 78.8868 265.787 79.0751 264.318C79.1226 263.537 79.2821 262.767 79.5486 262.032L79.5163 264.318L79.4356 270.348L78.9675 304.836C90.5385 307.897 102.425 309.61 114.389 309.941C115.013 309.957 115.627 309.968 116.219 309.979C116.428 309.984 116.633 309.989 116.837 309.989C117.51 309.995 118.177 310 118.849 310C131.458 310.009 144.021 308.487 156.262 305.465C155.998 296.788 155.735 281.548 155.482 270.348C155.428 268.159 155.38 266.12 155.326 264.318C155.224 260.466 155.116 257.691 155.014 256.76C155.104 256.925 155.175 257.1 155.224 257.282C155.722 259.601 156.062 261.952 156.24 264.318C156.429 266.12 156.617 268.159 156.805 270.348C157.806 281.984 158.85 297.805 159.926 304.513C166.33 302.765 172.615 300.603 178.739 298.042C181.967 296.697 185.138 295.246 188.251 293.69C187.66 289.816 187.041 285.475 186.406 280.973C185.911 277.481 185.4 273.893 184.878 270.348C184.071 264.872 172.079 226.603 171.32 225.15C170.67 223.908 170.051 222.735 169.464 221.654C168.044 219.029 166.839 216.936 165.946 215.613C162.212 209.95 156.654 205.734 150.193 203.665L150.032 203.622L149.919 203.67L138.917 200.292L137.308 199.797L136.227 199.464L132.418 196.564L130.346 194.988L128.404 193.509L124.606 190.62L101.09 192.067L96.5117 203.089L86.2574 206.839L86.0799 206.758L85.9239 206.694L85.7625 206.737C79.3031 208.807 73.7452 213.023 70.0099 218.684C69.5042 219.443 68.8909 220.443 68.1968 221.654C67.605 222.681 66.9594 223.854 66.26 225.15C65.2647 226.996 64.178 229.077 63.0267 231.331C62.7738 231.826 62.5156 232.332 62.2573 232.843C61.7785 233.79 61.2925 234.756 60.7993 235.742C59.6534 238.029 58.4698 240.417 57.2862 242.843C56.2586 244.947 55.2203 249.272 54.1981 254.775C53.3534 259.347 52.5142 264.738 51.7018 270.348C50.6365 277.621 51.7717 286.331 50.8087 293.023C50.7495 293.448 50.6849 293.862 50.6257 294.276Z" fill="#3F3D56"/>
<path opacity="0.2" d="M163.331 254.751L158.76 237.111L154.723 252.333L163.331 254.751Z" fill="black"/>
<path d="M41.6842 243.258C43.3197 265.787 41.625 275.706 50.6526 294.281C58.8665 298.301 67.4223 301.581 76.2184 304.083C77.133 304.341 78.0494 304.592 78.9676 304.836C90.5386 307.897 102.425 309.61 114.389 309.941C115.014 309.957 115.627 309.968 116.219 309.979C116.428 309.984 116.633 309.989 116.837 309.989C117.51 309.995 118.177 310 118.849 310C131.458 310.009 144.021 308.487 156.262 305.465C157.489 305.164 158.71 304.847 159.926 304.513C166.33 302.765 172.615 300.603 178.74 298.042C181.968 296.697 185.138 295.246 188.251 293.69C188.956 293.335 189.661 292.98 190.355 292.614C193.922 286.341 195.95 278.713 195.993 269.547C193.524 253.753 47.1395 229.637 41.6842 243.258Z" fill="#2F2E41"/>
<path opacity="0.2" d="M41.6884 247.116C41.6049 245.721 41.5115 244.28 41.4026 242.78C46.8579 229.159 193.242 253.275 195.712 269.069C195.705 270.517 195.643 271.923 195.539 273.294C189.559 257.706 50.4915 234.785 41.6884 247.116Z" fill="black"/>
<path d="M8.51617 254.547C8.7532 255.237 9.20282 255.834 9.80048 256.253C10.3981 256.671 11.1131 256.89 11.8427 256.877L26.0953 256.51C26.8302 256.495 27.5408 256.244 28.1207 255.792C28.7007 255.341 29.1189 254.714 29.313 254.005L31.3299 232.44C32.0454 232.764 32.8244 232.924 33.6099 232.908C34.9873 232.873 36.2944 232.292 37.2436 231.293C38.1929 230.295 38.7067 228.96 38.6721 227.582C38.6375 226.205 38.0574 224.898 37.0592 223.948C36.061 222.998 34.7265 222.484 33.349 222.517C33.035 222.516 32.7219 222.549 32.4149 222.614C32.081 222.253 31.6752 221.966 31.2236 221.771C30.772 221.576 30.2845 221.478 29.7927 221.483L7.86891 222.049C7.68705 222.056 7.50611 222.078 7.32812 222.116C6.84733 222.206 6.39132 222.397 5.99078 222.678C5.59024 222.959 5.25447 223.322 5.00606 223.743C4.75765 224.164 4.60238 224.634 4.55068 225.12C4.49898 225.606 4.55206 226.098 4.70635 226.562L8.51617 254.547ZM31.7435 230.976L33.1786 225.837C33.3419 225.243 33.3457 224.617 33.1896 224.022C33.2592 224.021 33.3207 223.988 33.3903 223.988C34.3744 223.968 35.3263 224.339 36.0375 225.019C36.7487 225.699 37.161 226.634 37.184 227.618C37.207 228.602 36.839 229.555 36.1604 230.268C35.4819 230.981 34.5483 231.395 33.5644 231.421C32.9282 231.441 32.2987 231.287 31.7435 230.976Z" fill="#2F2E41"/>
<path d="M7.32812 222.116C7.79521 224.787 13.0466 226.664 19.3609 226.338C25.1674 226.07 29.9151 224.031 30.7849 221.615C30.463 221.52 30.1283 221.475 29.7927 221.483L7.86892 222.049C7.68705 222.056 7.50611 222.078 7.32812 222.116Z" fill="#3F3D56"/>
<path d="M20.5182 242.697C20.5471 242.689 20.5745 242.677 20.5994 242.661L23.6946 240.635C23.732 240.611 23.7627 240.578 23.784 240.538C23.8053 240.499 23.8165 240.455 23.8165 240.41C23.8165 240.366 23.8054 240.322 23.7841 240.283C23.7629 240.243 23.7322 240.21 23.6948 240.186L20.4776 238.079C20.4481 238.059 20.415 238.046 20.3803 238.039C20.3455 238.032 20.3098 238.032 20.2751 238.039C20.2404 238.047 20.2075 238.06 20.1782 238.08C20.1489 238.1 20.1238 238.126 20.1044 238.155C20.085 238.185 20.0716 238.218 20.0651 238.253C20.0585 238.288 20.0589 238.323 20.0662 238.358C20.0735 238.393 20.0875 238.426 20.1075 238.455C20.1276 238.484 20.1532 238.509 20.1829 238.528L23.0563 240.41L20.3049 242.211C20.2517 242.246 20.2125 242.298 20.1943 242.359C20.1762 242.42 20.1803 242.486 20.2059 242.544C20.2314 242.602 20.2769 242.65 20.3341 242.678C20.3912 242.706 20.4565 242.712 20.5182 242.697H20.5182Z" fill="#FFD100"/>
<path d="M15.6295 242.922C15.6814 242.909 15.7282 242.881 15.764 242.841C15.7997 242.801 15.8227 242.751 15.83 242.698C15.8372 242.645 15.8285 242.591 15.8049 242.543C15.7812 242.495 15.7438 242.455 15.6973 242.428L12.8443 240.793L15.6018 238.745C15.6302 238.723 15.6541 238.697 15.6722 238.667C15.6903 238.636 15.7023 238.603 15.7074 238.568C15.7126 238.533 15.7108 238.497 15.7022 238.463C15.6936 238.429 15.6783 238.397 15.6573 238.368C15.6362 238.34 15.6098 238.316 15.5795 238.298C15.5492 238.28 15.5156 238.268 15.4807 238.263C15.4458 238.258 15.4102 238.26 15.376 238.268C15.3417 238.277 15.3095 238.292 15.2812 238.313L12.1938 240.606C12.1579 240.633 12.1292 240.668 12.1103 240.708C12.0914 240.749 12.0829 240.793 12.0855 240.838C12.0882 240.882 12.1019 240.926 12.1254 240.964C12.1489 241.001 12.1815 241.033 12.2203 241.055L15.4296 242.895C15.4901 242.93 15.5618 242.939 15.6295 242.922Z" fill="#FFD100"/>
<path d="M20.2103 244.472C20.2364 244.465 20.2612 244.455 20.284 244.441C20.3142 244.422 20.3405 244.398 20.3614 244.37C20.3823 244.341 20.3974 244.309 20.4057 244.275C20.4141 244.24 20.4156 244.205 20.4102 244.17C20.4048 244.135 20.3925 244.101 20.3741 244.071L15.9865 236.858C15.9492 236.798 15.8894 236.754 15.8202 236.738C15.751 236.721 15.678 236.732 15.6173 236.77C15.5565 236.807 15.5128 236.866 15.4959 236.935C15.479 237.004 15.4901 237.077 15.5268 237.138L19.9145 244.351C19.9444 244.4 19.9893 244.438 20.0425 244.46C20.0958 244.482 20.1546 244.486 20.2103 244.472Z" fill="#FFD100"/>
<path d="M361.002 214.201H313.12V256.16H361.002V214.201Z" fill="#3F3D56"/>
<path d="M368.099 155.592C367.212 160.852 367.991 166.259 370.329 171.054C371.194 172.818 372.266 174.942 371.212 176.6C370.917 177.015 370.532 177.358 370.087 177.605C369.641 177.852 369.146 177.996 368.638 178.027C367.622 178.081 366.604 177.949 365.634 177.638" fill="#CCCCCC"/>
<path d="M326.032 139.427C326.924 139.427 327.646 138.825 327.646 138.082C327.646 137.339 326.924 136.737 326.032 136.737C325.141 136.737 324.418 137.339 324.418 138.082C324.418 138.825 325.141 139.427 326.032 139.427Z" fill="#3F3D56"/>
<path d="M331.95 139.965C332.842 139.965 333.564 139.363 333.564 138.62C333.564 137.877 332.842 137.275 331.95 137.275C331.059 137.275 330.336 137.877 330.336 138.62C330.336 139.363 331.059 139.965 331.95 139.965Z" fill="#3F3D56"/>
<path d="M337.868 142.655C338.76 142.655 339.482 142.052 339.482 141.31C339.482 140.567 338.76 139.965 337.868 139.965C336.977 139.965 336.254 140.567 336.254 141.31C336.254 142.052 336.977 142.655 337.868 142.655Z" fill="#3F3D56"/>
<path d="M344.862 141.041C345.754 141.041 346.476 140.438 346.476 139.696C346.476 138.953 345.754 138.351 344.862 138.351C343.971 138.351 343.248 138.953 343.248 139.696C343.248 140.438 343.971 141.041 344.862 141.041Z" fill="#3F3D56"/>
<path d="M197.948 166.53C205.787 164.354 214.518 166.686 220.576 172.028C223.844 174.93 226.243 178.682 227.504 182.866C229.051 187.847 229.307 193.101 229.469 198.278C229.648 204.003 229.803 209.728 229.97 215.453C230.129 220.912 230.148 226.396 230.512 231.845C230.818 236.418 231.55 241.165 233.997 245.131C236.266 248.808 239.851 251.291 243.903 252.66C248.009 254.047 252.436 254.37 256.743 254.341C261.757 254.325 266.761 253.929 271.715 253.156C281.123 251.649 290.415 247.805 296.162 239.875C298.807 236.274 300.294 231.953 300.424 227.487C300.545 222.283 298.882 217.242 297.061 212.435C295.288 207.757 293.37 203.148 292.248 198.257C291.206 193.679 290.71 188.995 290.769 184.301C290.865 174.91 293.116 165.667 297.349 157.283C299.491 152.977 302.208 148.982 305.426 145.408C308.745 141.797 312.854 138.817 317.741 137.839C320.125 137.345 322.595 137.445 324.933 138.129C325.93 138.427 326.356 136.87 325.362 136.572C320.521 135.123 315.261 136.225 310.969 138.741C306.749 141.214 303.414 144.925 300.584 148.859C295.146 156.573 291.525 165.418 289.994 174.73C288.464 184.043 289.062 193.581 291.745 202.629C294.617 212.037 300.864 221.83 298.181 232.012C295.832 240.924 287.694 246.98 279.288 249.716C274.188 251.376 268.841 252.078 263.508 252.442C259 252.748 254.432 252.944 249.938 252.365C245.81 251.833 241.564 250.571 238.364 247.8C234.855 244.763 233.252 240.399 232.554 235.921C231.765 230.854 231.881 225.629 231.732 220.516L231.223 203.063C230.936 193.206 231.183 182.282 224.77 174.114C222.205 170.932 218.949 168.376 215.248 166.641C211.547 164.906 207.5 164.038 203.413 164.103C201.42 164.149 199.44 164.441 197.519 164.974C197.319 165.036 197.152 165.174 197.052 165.358C196.951 165.542 196.926 165.757 196.982 165.959C197.038 166.161 197.17 166.333 197.35 166.44C197.53 166.546 197.745 166.579 197.948 166.53H197.948Z" fill="#3F3D56"/>
<path d="M83.3719 156.321C84.5144 164.449 88.8374 171.791 95.391 176.735C101.945 181.678 110.193 183.817 118.323 182.683C126.454 181.549 133.801 177.234 138.751 170.686C143.702 164.138 145.85 155.893 144.724 147.762L144.662 147.323C143.352 139.302 138.941 132.117 132.381 127.319C125.821 122.52 117.637 120.493 109.595 121.673C101.553 122.854 94.2976 127.148 89.3936 133.63C84.4897 140.111 82.3303 148.26 83.3814 156.319L83.3719 156.321Z" fill="#FFB6B6"/>
<path d="M110.676 181.929C109.075 178.703 107.429 175.24 107.864 171.666C108.299 168.091 111.792 164.664 115.237 165.715C117.297 166.343 118.859 168.369 121.01 168.466C123.97 168.599 125.656 165.207 126.568 162.388L130.281 150.907C137.444 156.533 128.372 150.635 137.245 148.575C140.726 147.767 144.24 146.203 146.273 143.265C148.307 140.327 148.279 135.78 145.469 133.573C144.091 132.491 142.261 132.084 140.944 130.929C140.127 130.212 139.562 129.251 139.333 128.189C139.105 127.126 139.224 126.018 139.674 125.029C140.124 124.04 140.881 123.222 141.832 122.696C142.783 122.17 143.878 121.964 144.956 122.109L135.505 120.96L138.302 115.86C136.28 117.466 133.458 117.69 130.915 117.241C128.372 116.792 125.974 115.754 123.486 115.064C111.538 111.754 97.6855 117.625 91.7559 128.512C89.4287 127.743 86.9229 127.7 84.5705 128.388C82.2181 129.076 80.1303 130.462 78.5836 132.363C76.0654 135.581 75.3921 139.866 75.3078 143.951C75.1508 152.005 76.9337 159.979 80.5061 167.2C81.6196 169.444 82.9356 171.645 84.8281 173.287C86.7206 174.928 108.108 184.021 110.576 183.592" fill="#2F2E41"/>
<path d="M334.102 160.676C334.106 162.072 333.927 163.463 333.57 164.812V164.818C333.564 164.845 333.553 164.871 333.548 164.898C332.461 168.895 329.868 171.703 326.839 171.703C323.826 171.703 321.244 168.917 320.141 164.952C320.066 164.678 320.001 164.403 319.942 164.118C319.867 163.801 319.808 163.473 319.759 163.134C319.716 162.865 319.684 162.591 319.657 162.311C319.619 161.924 319.592 161.536 319.587 161.133V161.127C319.576 160.977 319.576 160.826 319.576 160.676V160.541L319.582 160.536C319.582 159.854 319.627 159.173 319.716 158.497C319.754 158.212 319.797 157.937 319.851 157.663C319.915 157.33 319.985 157.001 320.071 156.679C320.141 156.394 320.222 156.119 320.308 155.845C320.426 155.479 320.555 155.124 320.701 154.785C320.792 154.564 320.889 154.349 320.986 154.14C322.309 151.418 324.44 149.648 326.839 149.648C330.159 149.648 332.956 153.031 333.822 157.647C333.833 157.717 333.849 157.787 333.855 157.857V157.862C334.02 158.791 334.103 159.732 334.102 160.676Z" fill="#E6E6E6"/>
<path d="M321.055 154.376C321.052 154.475 321.015 154.57 320.95 154.644C320.886 154.719 320.798 154.768 320.701 154.785C320.792 154.565 320.889 154.349 320.985 154.14C321.03 154.211 321.054 154.292 321.055 154.376Z" fill="#FFD100"/>
<path d="M327.416 153.886H322.682C322.451 153.886 322.264 154.073 322.264 154.304C322.264 154.535 322.451 154.722 322.682 154.722H327.416C327.647 154.722 327.835 154.535 327.835 154.304C327.835 154.073 327.647 153.886 327.416 153.886Z" fill="#FFD100"/>
<path d="M320.91 156.259C320.91 156.37 320.866 156.477 320.787 156.555C320.709 156.634 320.602 156.678 320.491 156.679H320.071C320.141 156.393 320.222 156.119 320.308 155.845H320.491C320.601 155.845 320.707 155.888 320.786 155.966C320.864 156.043 320.909 156.149 320.91 156.259Z" fill="#FFD100"/>
<path d="M322.962 155.844H322.2C321.969 155.844 321.782 156.031 321.782 156.262C321.782 156.493 321.969 156.68 322.2 156.68H322.962C323.193 156.68 323.38 156.493 323.38 156.262C323.38 156.031 323.193 155.844 322.962 155.844Z" fill="#FFD100"/>
<path d="M329.74 155.774H325.005C324.774 155.774 324.587 155.961 324.587 156.192C324.587 156.423 324.774 156.61 325.005 156.61H329.74C329.971 156.61 330.158 156.423 330.158 156.192C330.158 155.961 329.971 155.774 329.74 155.774Z" fill="#FFD100"/>
<path d="M322.817 157.731H322.055C321.824 157.731 321.637 157.918 321.637 158.149C321.637 158.38 321.824 158.567 322.055 158.567H322.817C323.047 158.567 323.235 158.38 323.235 158.149C323.235 157.918 323.047 157.731 322.817 157.731Z" fill="#FFD100"/>
<path d="M325.285 157.731H324.523C324.292 157.731 324.105 157.918 324.105 158.149C324.105 158.38 324.292 158.567 324.523 158.567H325.285C325.516 158.567 325.703 158.38 325.703 158.149C325.703 157.918 325.516 157.731 325.285 157.731Z" fill="#FFD100"/>
<path d="M320.867 158.077C320.867 158.189 320.823 158.295 320.744 158.374C320.666 158.453 320.559 158.497 320.448 158.497H319.716C319.754 158.212 319.797 157.937 319.851 157.663H320.448C320.503 157.663 320.557 157.673 320.608 157.693C320.658 157.714 320.705 157.744 320.744 157.783C320.783 157.821 320.814 157.867 320.835 157.918C320.856 157.968 320.867 158.023 320.867 158.077Z" fill="#FFD100"/>
<path d="M332.063 157.661H327.328C327.098 157.661 326.91 157.848 326.91 158.079C326.91 158.31 327.098 158.497 327.328 158.497H332.063C332.294 158.497 332.481 158.31 332.481 158.079C332.481 157.848 332.294 157.661 332.063 157.661Z" fill="#FFD100"/>
<path d="M321.056 160.831C321.055 160.886 321.044 160.94 321.023 160.991C321.002 161.042 320.971 161.087 320.932 161.126C320.893 161.164 320.847 161.195 320.796 161.215C320.745 161.236 320.691 161.246 320.636 161.246H319.877C319.77 161.246 319.666 161.206 319.587 161.133V161.127C319.576 160.977 319.576 160.826 319.576 160.675V160.541L319.582 160.536C319.62 160.496 319.666 160.465 319.717 160.444C319.768 160.423 319.822 160.412 319.877 160.412H320.636C320.747 160.412 320.854 160.456 320.933 160.535C321.011 160.614 321.056 160.72 321.056 160.831Z" fill="#CCCCCC"/>
<path d="M327.416 160.342H322.682C322.451 160.342 322.264 160.529 322.264 160.76C322.264 160.991 322.451 161.178 322.682 161.178H327.416C327.647 161.178 327.835 160.991 327.835 160.76C327.835 160.529 327.647 160.342 327.416 160.342Z" fill="#CCCCCC"/>
<path d="M320.911 162.714C320.91 162.826 320.866 162.932 320.787 163.011C320.709 163.09 320.602 163.134 320.491 163.134H319.759C319.716 162.865 319.684 162.591 319.657 162.311C319.681 162.302 319.707 162.298 319.732 162.3H320.491C320.601 162.3 320.707 162.343 320.786 162.421C320.864 162.499 320.909 162.604 320.911 162.714Z" fill="#CCCCCC"/>
<path d="M322.962 162.299H322.2C321.969 162.299 321.782 162.486 321.782 162.717C321.782 162.948 321.969 163.135 322.2 163.135H322.962C323.193 163.135 323.38 162.948 323.38 162.717C323.38 162.486 323.193 162.299 322.962 162.299Z" fill="#CCCCCC"/>
<path d="M329.74 162.229H325.005C324.774 162.229 324.587 162.416 324.587 162.647C324.587 162.878 324.774 163.065 325.005 163.065H329.74C329.971 163.065 330.158 162.878 330.158 162.647C330.158 162.416 329.971 162.229 329.74 162.229Z" fill="#CCCCCC"/>
<path d="M322.817 164.186H322.055C321.824 164.186 321.637 164.373 321.637 164.604C321.637 164.835 321.824 165.022 322.055 165.022H322.817C323.047 165.022 323.235 164.835 323.235 164.604C323.235 164.373 323.047 164.186 322.817 164.186Z" fill="#CCCCCC"/>
<path d="M325.285 164.186H324.523C324.292 164.186 324.105 164.373 324.105 164.604C324.105 164.835 324.292 165.022 324.523 165.022H325.285C325.516 165.022 325.703 164.835 325.703 164.604C325.703 164.373 325.516 164.186 325.285 164.186Z" fill="#CCCCCC"/>
<path d="M320.867 164.533C320.867 164.644 320.823 164.751 320.744 164.829C320.666 164.908 320.559 164.952 320.448 164.952H320.141C320.066 164.678 320.001 164.404 319.942 164.118H320.448C320.503 164.118 320.557 164.128 320.608 164.149C320.659 164.169 320.705 164.2 320.744 164.238C320.783 164.277 320.814 164.323 320.835 164.373C320.856 164.424 320.867 164.478 320.867 164.533Z" fill="#CCCCCC"/>
<path d="M332.063 164.116H327.328C327.098 164.116 326.91 164.304 326.91 164.535C326.91 164.766 327.098 164.953 327.328 164.953H332.063C332.294 164.953 332.481 164.766 332.481 164.535C332.481 164.304 332.294 164.116 332.063 164.116Z" fill="#CCCCCC"/>
</g>
<defs>
<clipPath id="clip0_12_438">
<rect width="397.485" height="310" fill="white"/>
</clipPath>
</defs>
</svg>
