<svg width="52" height="52" viewBox="0 0 52 52" fill="none" xmlns="http://www.w3.org/2000/svg">
<path fill-rule="evenodd" clip-rule="evenodd" d="M0 26C0 11.6406 11.6406 0 26 0C40.3594 0 52 11.6406 52 26C52 40.3594 40.3594 52 26 52C11.6406 52 0 40.3594 0 26ZM13.325 21.6125V39H18.85V21.6125H13.325ZM13 16.0875C13 17.875 14.3 19.175 16.0875 19.175C17.875 19.175 19.175 17.875 19.175 16.0875C19.175 14.3 17.875 13 16.0875 13C14.4625 13 13 14.3 13 16.0875ZM33.475 39H38.675V28.275C38.675 22.9125 35.425 21.125 32.3375 21.125C29.575 21.125 27.625 22.9125 27.1375 24.05V21.6125H21.9375V39H27.4625V29.7375C27.4625 27.3 29.0875 26 30.7125 26C32.3375 26 33.475 26.8125 33.475 29.575V39Z" fill="#FFD100"/>
</svg>
