<svg width="266" height="40" viewBox="0 0 266 40" fill="none" xmlns="http://www.w3.org/2000/svg">
<path d="M10.226 40C8.17477 40 7.14915 39.0045 7.14915 37.0136V36.0181L8.3256 33.4842C12.8504 23.9517 16.1384 15.7164 18.1896 8.77828L18.9136 6.60634H16.0177C13.7252 6.60634 12.0962 6.69684 11.131 6.87783C10.1657 7.05883 8.98923 7.63198 7.60163 8.59729C6.938 9.01961 6.27436 9.56259 5.61073 10.2262C4.94709 10.8899 4.37395 11.5234 3.89131 12.1267C3.40867 12.73 3.13718 13.092 3.07685 13.2127C2.95619 13.273 2.50371 13.3032 1.71942 13.3032C0.573139 13.3032 0 13.0015 0 12.3982C0 12.0362 0.573139 10.9804 1.71942 9.23077C2.86569 7.48115 4.52478 5.61086 6.69667 3.61991C8.86857 1.62896 11.0103 0.482656 13.1219 0.180996C13.5442 0.0603328 20.3313 1.12082e-06 33.4834 1.12082e-06C43.1362 1.12082e-06 48.0833 0.030167 48.3247 0.0904988C49.5313 0.512822 50.1346 1.35747 50.1346 2.62444C50.1346 4.49472 49.1693 5.76169 47.2387 6.42534C46.8767 6.546 44.7953 6.60634 40.9945 6.60634H35.2028L34.9313 8.1448C34.2073 12.4887 33.8454 16.0784 33.8454 18.914C33.8454 22.0513 34.1168 24.8567 34.6598 27.3303C35.2028 29.8039 35.7759 31.7345 36.3792 33.1222C36.9825 34.5098 37.2842 35.3544 37.2842 35.6561C37.2842 36.6817 36.8619 37.6471 36.0173 38.552C35.1726 39.457 34.0867 39.9095 32.7594 39.9095C32.0958 39.9095 31.5528 39.819 31.1305 39.638C30.7082 39.457 30.2255 38.733 29.6826 37.4661C29.1396 36.1991 28.6569 34.3891 28.2346 32.0362C28.1743 31.4932 28.1441 30.1659 28.1441 28.0543C28.1441 25.098 28.4156 21.9306 28.9586 18.552C29.5016 15.1735 30.0445 12.3982 30.5875 10.2262C31.1305 8.0543 31.4321 6.84767 31.4925 6.60634H22.6239L22.5334 6.96833C22.5334 7.14932 21.9603 9.53243 20.814 14.1176C19.6677 18.7029 18.3706 23.5596 16.9227 28.6878C15.4747 33.816 14.5396 36.7421 14.1173 37.4661C13.4537 39.1554 12.1566 40 10.226 40Z" fill="#FFD100"/>
<path d="M80.6268 29.073C80.7368 29.073 80.8303 29.1115 80.9073 29.1885L81.5673 29.898C81.0833 30.415 80.5553 30.8825 79.9833 31.3005C79.4223 31.7075 78.8008 32.0595 78.1188 32.3565C77.4478 32.6425 76.7053 32.8625 75.8913 33.0165C75.0883 33.1815 74.2028 33.264 73.2348 33.264C71.6178 33.264 70.1328 32.9835 68.7798 32.4225C67.4378 31.8505 66.2828 31.0475 65.3148 30.0135C64.3468 28.9685 63.5933 27.709 63.0543 26.235C62.5263 24.761 62.2623 23.122 62.2623 21.318C62.2623 19.547 62.5373 17.93 63.0873 16.467C63.6373 15.004 64.4073 13.75 65.3973 12.705C66.3873 11.649 67.5753 10.835 68.9613 10.263C70.3473 9.68 71.8763 9.3885 73.5483 9.3885C75.1433 9.3885 76.5568 9.636 77.7888 10.131C79.0208 10.626 80.1428 11.3245 81.1548 12.2265L80.6433 12.969C80.5553 13.101 80.4178 13.167 80.2308 13.167C80.0988 13.167 79.8843 13.046 79.5873 12.804C79.2903 12.562 78.8778 12.298 78.3498 12.012C77.8218 11.715 77.1618 11.4455 76.3698 11.2035C75.5888 10.9615 74.6483 10.8405 73.5483 10.8405C72.1403 10.8405 70.8478 11.0825 69.6708 11.5665C68.5048 12.0505 67.4983 12.7435 66.6513 13.6455C65.8153 14.5475 65.1608 15.6475 64.6878 16.9455C64.2148 18.2435 63.9783 19.701 63.9783 21.318C63.9783 22.968 64.2148 24.442 64.6878 25.74C65.1718 27.038 65.8318 28.138 66.6678 29.04C67.5038 29.931 68.4883 30.6185 69.6213 31.1025C70.7653 31.5755 71.9973 31.812 73.3173 31.812C74.1533 31.812 74.8958 31.757 75.5448 31.647C76.2048 31.537 76.8098 31.372 77.3598 31.152C77.9098 30.932 78.4213 30.6625 78.8943 30.3435C79.3673 30.0245 79.8348 29.6505 80.2968 29.2215C80.3518 29.1775 80.4068 29.1445 80.4618 29.1225C80.5168 29.0895 80.5718 29.073 80.6268 29.073ZM106.435 21.318C106.435 23.122 106.165 24.761 105.626 26.235C105.087 27.698 104.328 28.952 103.349 29.997C102.37 31.031 101.193 31.834 99.8184 32.406C98.4544 32.967 96.9474 33.2475 95.2973 33.2475C93.6474 33.2475 92.1404 32.967 90.7763 32.406C89.4123 31.834 88.2408 31.031 87.2618 29.997C86.2828 28.952 85.5238 27.698 84.9848 26.235C84.4458 24.761 84.1763 23.122 84.1763 21.318C84.1763 19.525 84.4458 17.897 84.9848 16.434C85.5238 14.96 86.2828 13.706 87.2618 12.672C88.2408 11.627 89.4123 10.8185 90.7763 10.2465C92.1404 9.6745 93.6474 9.3885 95.2973 9.3885C96.9474 9.3885 98.4544 9.6745 99.8184 10.2465C101.193 10.8075 102.37 11.6105 103.349 12.6555C104.328 13.7005 105.087 14.96 105.626 16.434C106.165 17.897 106.435 19.525 106.435 21.318ZM104.686 21.318C104.686 19.69 104.46 18.227 104.009 16.929C103.558 15.631 102.92 14.531 102.095 13.629C101.27 12.727 100.28 12.0395 99.1253 11.5665C97.9704 11.0825 96.6944 10.8405 95.2973 10.8405C93.9113 10.8405 92.6408 11.0825 91.4858 11.5665C90.3308 12.0395 89.3353 12.727 88.4993 13.629C87.6743 14.531 87.0308 15.631 86.5689 16.929C86.1178 18.227 85.8923 19.69 85.8923 21.318C85.8923 22.957 86.1178 24.4255 86.5689 25.7235C87.0308 27.0105 87.6743 28.105 88.4993 29.007C89.3353 29.909 90.3308 30.5965 91.4858 31.0695C92.6408 31.5425 93.9113 31.779 95.2973 31.779C96.6944 31.779 97.9704 31.5425 99.1253 31.0695C100.28 30.5965 101.27 29.909 102.095 29.007C102.92 28.105 103.558 27.0105 104.009 25.7235C104.46 24.4255 104.686 22.957 104.686 21.318ZM134.865 9.6525V33H133.396V13.101C133.396 12.815 133.413 12.5125 133.446 12.1935L124.255 28.512C124.101 28.798 123.881 28.941 123.595 28.941H123.331C123.045 28.941 122.825 28.798 122.671 28.512L113.233 12.1605C113.266 12.4905 113.283 12.804 113.283 13.101V33H111.798V9.6525H112.969C113.123 9.6525 113.244 9.669 113.332 9.702C113.42 9.735 113.508 9.823 113.596 9.966L123.018 26.202C123.183 26.51 123.326 26.84 123.447 27.192C123.513 27.016 123.584 26.8455 123.661 26.6805C123.738 26.5045 123.821 26.3395 123.909 26.1855L133.066 9.966C133.154 9.823 133.242 9.735 133.33 9.702C133.429 9.669 133.556 9.6525 133.71 9.6525H134.865ZM164.836 9.6525V33H163.367V13.101C163.367 12.815 163.384 12.5125 163.417 12.1935L154.226 28.512C154.072 28.798 153.852 28.941 153.566 28.941H153.302C153.016 28.941 152.796 28.798 152.642 28.512L143.204 12.1605C143.237 12.4905 143.254 12.804 143.254 13.101V33H141.769V9.6525H142.94C143.094 9.6525 143.215 9.669 143.303 9.702C143.391 9.735 143.479 9.823 143.567 9.966L152.989 26.202C153.154 26.51 153.297 26.84 153.418 27.192C153.484 27.016 153.555 26.8455 153.632 26.6805C153.709 26.5045 153.792 26.3395 153.88 26.1855L163.037 9.966C163.125 9.823 163.213 9.735 163.301 9.702C163.4 9.669 163.527 9.6525 163.681 9.6525H164.836ZM180.286 31.7955C181.408 31.7955 182.409 31.603 183.289 31.218C184.18 30.822 184.934 30.2775 185.55 29.5845C186.166 28.8915 186.633 28.0775 186.952 27.1425C187.282 26.1965 187.447 25.179 187.447 24.09V9.6525H189.13V24.09C189.13 25.377 188.927 26.5815 188.52 27.7035C188.113 28.8145 187.524 29.788 186.754 30.624C185.995 31.449 185.066 32.098 183.966 32.571C182.877 33.044 181.65 33.2805 180.286 33.2805C178.922 33.2805 177.69 33.044 176.59 32.571C175.501 32.098 174.572 31.449 173.802 30.624C173.043 29.788 172.46 28.8145 172.053 27.7035C171.646 26.5815 171.442 25.377 171.442 24.09V9.6525H173.142V24.0735C173.142 25.1625 173.301 26.18 173.62 27.126C173.95 28.061 174.418 28.875 175.023 29.568C175.639 30.261 176.387 30.8055 177.267 31.2015C178.158 31.5975 179.164 31.7955 180.286 31.7955ZM213.734 9.6525V33H212.942C212.799 33 212.678 32.978 212.579 32.934C212.491 32.879 212.403 32.791 212.315 32.67L197.151 12.408C197.184 12.738 197.201 13.0515 197.201 13.3485V33H195.716V9.6525H196.557C196.711 9.6525 196.827 9.6745 196.904 9.7185C196.992 9.7515 197.085 9.834 197.184 9.966L212.315 30.1785C212.282 29.8485 212.265 29.535 212.265 29.238V9.6525H213.734ZM222.326 33H220.627V9.6525H222.326V33ZM244.411 11.088H236.211V33H234.511V11.088H226.261V9.6525H244.411V11.088ZM255.552 23.3805V33H253.869V23.3805L245.223 9.6525H246.708C246.862 9.6525 246.989 9.691 247.088 9.768C247.187 9.834 247.269 9.933 247.335 10.065L254.018 20.79C254.161 21.043 254.293 21.2905 254.414 21.5325C254.535 21.7635 254.639 21.9945 254.727 22.2255C254.815 21.9945 254.914 21.7635 255.024 21.5325C255.134 21.2905 255.261 21.043 255.404 20.79L262.086 10.065C262.141 9.944 262.218 9.845 262.317 9.768C262.427 9.691 262.559 9.6525 262.713 9.6525H264.198L255.552 23.3805Z" fill="#FFD100"/>
</svg>
