<svg width="201" height="150" viewBox="0 0 201 150" fill="none" xmlns="http://www.w3.org/2000/svg">
<g clip-path="url(#clip0_26_1614)">
<path fill-rule="evenodd" clip-rule="evenodd" d="M146.452 73.1203C145.88 73.1258 145.319 73.277 144.822 73.5597C144.608 73.7041 144.434 73.9 144.316 74.1293C144.2 74.4188 144.145 74.729 144.153 75.0407C144.331 76.4861 144.894 77.8574 145.784 79.0116L149.208 84.4472C150.472 86.6502 152.018 88.6797 153.806 90.485C155.558 92.1682 157.896 93.1075 160.328 93.1051C161.609 93.132 162.882 92.9024 164.072 92.43C165.262 91.9576 166.345 91.252 167.258 90.3548C169.125 88.4075 170.721 86.2179 172.003 83.8451L175.851 77.5144C176.439 76.4923 176.722 75.3232 176.666 74.1456C176.568 73.755 176.144 73.576 175.427 73.5272H174.954H174.416H174.106C173.759 73.5585 173.409 73.5585 173.062 73.5272L174.383 67.701C164.6 69.3284 157.263 61.9887 146.909 66.2526L147.626 73.2342C147.236 73.2753 146.843 73.2753 146.452 73.2342V73.1203ZM120.364 118.281C121.277 106.531 118.962 106.369 128.843 102.674C134.289 100.823 139.556 98.4805 144.577 95.6765L153.04 118.281H120.364ZM200.259 118.281C199.362 106.531 201.661 106.369 191.797 102.674C186.346 100.82 181.075 98.4776 176.046 95.6765L167.584 118.281H200.259ZM162.758 105.962H163.931C164.445 105.958 164.936 105.752 165.299 105.39C165.662 105.028 165.868 104.537 165.872 104.025V100.901C165.872 100.387 165.667 99.8943 165.303 99.5311C164.94 99.1679 164.446 98.9639 163.931 98.9639H156.92C156.406 98.9639 155.912 99.1679 155.548 99.5311C155.184 99.8943 154.98 100.387 154.98 100.901V104.041C154.984 104.554 155.19 105.044 155.553 105.406C155.916 105.768 156.407 105.974 156.92 105.978H158.159L155.877 118.298H165.008L162.806 105.978L162.758 105.962ZM54.2959 106.662L55.633 107.98C55.7983 108.15 55.8908 108.378 55.8908 108.615C55.8908 108.851 55.7983 109.079 55.633 109.249L54.5568 110.323C54.8564 110.883 55.0811 111.479 55.2253 112.097H56.6113C56.8491 112.097 57.0772 112.192 57.2454 112.359C57.4136 112.527 57.5081 112.755 57.5081 112.992V114.864C57.5081 115.101 57.4136 115.329 57.2454 115.497C57.0772 115.665 56.8491 115.759 56.6113 115.759H55.0949C54.9076 116.359 54.6446 116.934 54.3123 117.468L55.2906 118.46C55.4559 118.631 55.5484 118.858 55.5484 119.095C55.5484 119.332 55.4559 119.56 55.2906 119.73L53.9535 121.048C53.7859 121.212 53.5605 121.304 53.3258 121.304C53.0911 121.304 52.8657 121.212 52.698 121.048L51.6219 119.974C51.0613 120.273 50.4637 120.497 49.8447 120.641V122.057C49.8447 122.294 49.7502 122.522 49.582 122.69C49.4138 122.858 49.1857 122.952 48.9479 122.952H47.0728C46.8349 122.952 46.6068 122.858 46.4387 122.69C46.2705 122.522 46.176 122.294 46.176 122.057V120.544C45.5679 120.36 44.9868 120.098 44.4477 119.762L43.4694 120.739C43.3872 120.825 43.2885 120.893 43.1792 120.939C43.0699 120.986 42.9523 121.01 42.8335 121.01C42.7146 121.01 42.597 120.986 42.4877 120.939C42.3785 120.893 42.2797 120.825 42.1976 120.739L40.8768 119.421C40.791 119.339 40.7227 119.24 40.6761 119.131C40.6294 119.022 40.6054 118.905 40.6054 118.786C40.6054 118.667 40.6294 118.55 40.6761 118.441C40.7227 118.332 40.791 118.233 40.8768 118.151L41.9367 117.077C41.6355 116.52 41.4158 115.923 41.2845 115.303H39.8985C39.7802 115.305 39.6626 115.284 39.5528 115.24C39.443 115.195 39.3432 115.13 39.2595 115.046C39.1758 114.962 39.1098 114.863 39.0655 114.753C39.0212 114.644 38.9995 114.526 39.0018 114.408V112.504C39.0018 112.267 39.0962 112.039 39.2644 111.871C39.4326 111.703 39.6607 111.609 39.8985 111.609H41.4149C41.5988 111.033 41.8622 110.485 42.1976 109.982L41.2193 109.005C41.1334 108.923 41.0651 108.825 41.0185 108.715C40.9718 108.606 40.9478 108.489 40.9478 108.37C40.9478 108.252 40.9718 108.134 41.0185 108.025C41.0651 107.916 41.1334 107.818 41.2193 107.736L42.54 106.401C42.7104 106.236 42.9384 106.144 43.1759 106.144C43.4133 106.144 43.6414 106.236 43.8118 106.401L44.8879 107.475C45.4486 107.176 46.0461 106.952 46.6652 106.808V105.425C46.6652 105.187 46.7596 104.96 46.9278 104.792C47.096 104.624 47.3241 104.53 47.5619 104.53H49.437C49.6749 104.53 49.903 104.624 50.0711 104.792C50.2393 104.96 50.3338 105.187 50.3338 105.425V106.938C50.9393 107.115 51.516 107.378 52.0458 107.719L53.0242 106.743C53.1063 106.657 53.205 106.589 53.3143 106.543C53.4236 106.496 53.5412 106.472 53.66 106.472C53.7789 106.472 53.8965 106.496 54.0058 106.543C54.115 106.589 54.2138 106.657 54.2959 106.743V106.662ZM48.2468 109.916C48.9788 109.916 49.6944 110.133 50.3031 110.539C50.9117 110.945 51.3861 111.522 51.6663 112.197C51.9464 112.872 52.0197 113.615 51.8769 114.331C51.7341 115.048 51.3816 115.706 50.8639 116.223C50.3463 116.74 49.6868 117.091 48.9688 117.234C48.2509 117.377 47.5067 117.303 46.8303 117.024C46.154 116.744 45.576 116.271 45.1693 115.663C44.7626 115.056 44.5455 114.341 44.5455 113.611C44.5455 112.631 44.9354 111.691 45.6296 110.998C46.3237 110.306 47.2651 109.916 48.2468 109.916ZM70.813 84.3658C69.9002 84.2671 69.0616 83.818 68.4743 83.1134C67.8871 82.4089 67.5973 81.5041 67.6661 80.5902C67.6213 80.1355 67.6674 79.6764 67.8018 79.2397C67.9361 78.8029 68.1561 78.3971 68.4488 78.0458C68.7416 77.6946 69.1013 77.4049 69.5072 77.1935C69.913 76.9821 70.3569 76.8533 70.813 76.8146H111.07C111.984 76.9134 112.825 77.3619 113.415 78.0659C114.004 78.7699 114.298 79.6747 114.234 80.5902C114.276 81.0458 114.228 81.5052 114.092 81.9421C113.955 82.379 113.734 82.7846 113.44 83.1356C113.146 83.4866 112.785 83.776 112.378 83.9872C111.972 84.1983 111.527 84.327 111.07 84.3658H70.813ZM70.813 117.386C69.9018 117.284 69.0657 116.833 68.4792 116.13C67.8928 115.426 67.6015 114.524 67.6661 113.611C67.6212 113.155 67.6672 112.695 67.8014 112.257C67.9356 111.82 68.1553 111.413 68.4479 111.06C68.7404 110.708 69.1001 110.416 69.506 110.203C69.912 109.99 70.3562 109.86 70.813 109.819H98.2871C99.2013 109.922 100.04 110.374 100.627 111.081C101.214 111.788 101.503 112.695 101.434 113.611C101.479 114.065 101.433 114.524 101.298 114.961C101.164 115.398 100.944 115.804 100.651 116.155C100.359 116.506 99.9988 116.796 99.593 117.007C99.1871 117.219 98.7432 117.348 98.2871 117.386H70.813ZM48.1489 56.3578C47.7057 56.6684 47.1621 56.8022 46.625 56.733C46.0879 56.6637 45.5962 56.3963 45.2466 55.9835L45.002 55.7231L40.9584 51.5732C40.7661 51.3361 40.623 51.0631 40.5377 50.7701C40.4523 50.4772 40.4263 50.1702 40.4613 49.8672C40.4962 49.5641 40.5913 49.271 40.7411 49.0051C40.8908 48.7391 41.0922 48.5057 41.3334 48.3183C41.8095 47.8753 42.4305 47.6196 43.0811 47.5987C43.7317 47.5777 44.3678 47.7929 44.8716 48.2044L47.0076 50.4503L54.084 44.7868C54.3383 44.619 54.6247 44.5057 54.9252 44.4541C55.2256 44.4026 55.5335 44.4139 55.8294 44.4873C56.1252 44.5608 56.4026 44.6947 56.6438 44.8808C56.8851 45.0668 57.085 45.3008 57.2309 45.568C57.6581 46.0578 57.8796 46.6932 57.8492 47.342C57.8188 47.9907 57.5389 48.6027 57.0678 49.0507L48.2304 56.3578H48.1489ZM70.6174 53.103C68.8564 53.103 67.6824 51.3291 67.6824 49.3111C67.6824 47.293 68.8564 45.568 70.6174 45.568H116.712C117.625 45.6668 118.463 46.1159 119.051 46.8204C119.638 47.5249 119.928 48.4297 119.859 49.3436C119.904 49.7992 119.858 50.2591 119.724 50.6969C119.589 51.1347 119.37 51.5416 119.077 51.8941C118.784 52.2467 118.425 52.5379 118.019 52.751C117.613 52.964 117.169 53.0947 116.712 53.1355L70.6174 53.103ZM24.1152 19.3664H162.529C163.557 19.3707 164.542 19.7801 165.269 20.5056C165.995 21.231 166.406 22.2137 166.41 23.2397V34.4364H159.219V25.6971H24.1152V108.696C24.1173 109.26 23.9157 109.805 23.5473 110.233C23.179 110.66 22.6685 110.941 22.1097 111.023C0.994555 114.294 -5.75632e-05 139.243 21.4738 142.823H159.219V132.342H166.41V146.11C166.407 147.137 165.997 148.12 165.269 148.845C164.541 149.568 163.557 149.978 162.529 149.984H21.3107C15.5387 149.984 7.50029 145.459 4.15774 140.691C0.815198 135.923 -0.277244 130.08 -5.72465e-05 123.131V32.5486C-5.72465e-05 17.1205 -0.146804 0.390583 21.4738 0H21.7346C22.366 0 22.9715 0.250333 23.4179 0.695927C23.8644 1.14152 24.1152 1.74588 24.1152 2.37604V19.3664ZM5.6252 112.667C10.3374 107.785 12.2451 107.101 18.5715 105.946V4.88228C3.79903 6.33069 5.52737 19.9685 5.52737 32.6299C5.52737 34.2574 5.52737 35.2338 5.52737 35.6407V112.667H5.6252ZM54.2959 73.6086L55.633 74.943C55.7983 75.1131 55.8908 75.3408 55.8908 75.5777C55.8908 75.8147 55.7983 76.0424 55.633 76.2124L54.5568 77.2703C54.8537 77.831 55.0784 78.4271 55.2253 79.0442H56.6113C56.8491 79.0442 57.0772 79.1385 57.2454 79.3063C57.4136 79.4742 57.5081 79.7019 57.5081 79.9392V81.8108C57.5081 82.0497 57.4141 82.2791 57.2464 82.4495C57.0787 82.62 56.8506 82.7179 56.6113 82.7221H55.0949C54.8983 83.2932 54.6357 83.8393 54.3123 84.3496L55.2906 85.326C55.4559 85.4961 55.5484 85.7237 55.5484 85.9607C55.5484 86.1977 55.4559 86.4254 55.2906 86.5954L53.9535 87.9299C53.7859 88.0939 53.5605 88.1858 53.3258 88.1858C53.0911 88.1858 52.8657 88.0939 52.698 87.9299L51.6219 86.8558C51.0613 87.1548 50.4637 87.3791 49.8447 87.5231V88.9064C49.8447 89.1438 49.7502 89.3714 49.582 89.5393C49.4138 89.7072 49.1857 89.8015 48.9479 89.8015H47.0728C46.8349 89.8015 46.6068 89.7072 46.4387 89.5393C46.2705 89.3714 46.176 89.1438 46.176 88.9064V87.3929C45.5705 87.2028 44.9902 86.9405 44.4477 86.6117L43.4694 87.5882C43.299 87.7532 43.0709 87.8455 42.8335 87.8455C42.596 87.8455 42.3679 87.7532 42.1976 87.5882L40.8768 86.2537C40.791 86.1716 40.7227 86.0731 40.6761 85.964C40.6294 85.8549 40.6054 85.7376 40.6054 85.619C40.6054 85.5004 40.6294 85.383 40.6761 85.2739C40.7227 85.1648 40.791 85.0663 40.8768 84.9843L41.9367 83.9264C41.6379 83.3682 41.4183 82.7712 41.2845 82.1525H39.8985C39.6607 82.1525 39.4326 82.0582 39.2644 81.8904C39.0962 81.7225 39.0018 81.4949 39.0018 81.2575V79.4998C38.9995 79.3817 39.0212 79.2643 39.0655 79.1547C39.1098 79.0451 39.1758 78.9456 39.2595 78.862C39.3432 78.7784 39.443 78.7126 39.5528 78.6684C39.6626 78.6242 39.7802 78.6025 39.8985 78.6048H41.4149C41.5884 77.9941 41.8521 77.4126 42.1976 76.8797L41.2193 75.9032C41.1334 75.8212 41.0651 75.7227 41.0185 75.6136C40.9718 75.5045 40.9478 75.3871 40.9478 75.2685C40.9478 75.1499 40.9718 75.0325 41.0185 74.9235C41.0651 74.8144 41.1334 74.7159 41.2193 74.6338L42.54 73.3156C42.6222 73.2299 42.7209 73.1618 42.8302 73.1152C42.9394 73.0686 43.057 73.0446 43.1759 73.0446C43.2947 73.0446 43.4123 73.0686 43.5216 73.1152C43.6309 73.1618 43.7296 73.2299 43.8118 73.3156L44.8879 74.3734C45.4461 74.0728 46.0446 73.8536 46.6652 73.7225V72.3392C46.663 72.2203 46.6846 72.1021 46.7287 71.9916C46.7728 71.8811 46.8385 71.7805 46.922 71.6957C47.0055 71.6108 47.1051 71.5434 47.2149 71.4975C47.3248 71.4515 47.4428 71.4278 47.5619 71.4278H49.437C49.6764 71.4321 49.9044 71.53 50.0722 71.7004C50.2399 71.8709 50.3338 72.1002 50.3338 72.3392V73.8364C50.9341 74.0266 51.509 74.2889 52.0458 74.6176L53.0242 73.6411C53.1945 73.4761 53.4226 73.3838 53.66 73.3838C53.8975 73.3838 54.1256 73.4761 54.2959 73.6411V73.6086ZM48.2468 76.9611C48.9795 76.9611 49.6957 77.1781 50.3047 77.5848C50.9138 77.9914 51.3882 78.5694 51.6678 79.2454C51.9475 79.9213 52.0198 80.665 51.8757 81.382C51.7315 82.0991 51.3774 82.7573 50.8581 83.2733C50.3389 83.7893 49.6778 84.1399 48.9588 84.2806C48.2397 84.4213 47.495 84.3458 46.819 84.0637C46.143 83.7816 45.5661 83.3055 45.1613 82.6959C44.7566 82.0862 44.5423 81.3704 44.5455 80.639C44.5498 79.6621 44.9417 78.7266 45.6353 78.0373C46.329 77.348 47.2679 76.961 48.2468 76.9611ZM176.731 71.8509C177.174 71.967 177.576 72.2033 177.893 72.5337C178.209 72.8641 178.428 73.2756 178.525 73.7225C178.725 75.3386 178.399 76.9763 177.595 78.3932C177.6 78.4256 177.6 78.4585 177.595 78.4908L173.698 84.9029C172.326 87.401 170.626 89.7052 168.644 91.7544C167.551 92.8166 166.257 93.6513 164.838 94.2101C163.419 94.7689 161.902 95.0405 160.377 95.0092C157.446 95.0339 154.622 93.9055 152.518 91.8683C150.607 89.959 148.962 87.8024 147.626 85.4562L144.202 80.0206C143.107 78.5776 142.435 76.859 142.262 75.057C142.23 74.4483 142.342 73.8407 142.588 73.2831C142.849 72.73 143.254 72.2576 143.762 71.916C144.024 71.7461 144.302 71.6042 144.594 71.4929C144.359 68.2435 144.304 64.9837 144.431 61.7283C144.51 60.9801 144.652 60.2398 144.855 59.515C150.007 42.4921 176.095 43.9405 176.943 63.0303L176.731 71.8835V71.8509Z" fill="#FFD100"/>
</g>
<defs>
<clipPath id="clip0_26_1614">
<rect width="200.357" height="150" fill="white"/>
</clipPath>
</defs>
</svg>
