<svg width="27" height="27" viewBox="0 0 27 27" fill="none" xmlns="http://www.w3.org/2000/svg">
<path d="M11.7 2.70001C6.74011 2.70001 2.70001 6.74011 2.70001 11.7C2.70001 16.6599 6.74011 20.7 11.7 20.7C13.8569 20.7 15.8377 19.9341 17.39 18.6627L22.7637 24.0363C22.8466 24.1227 22.9459 24.1917 23.0559 24.2392C23.1658 24.2867 23.2841 24.3118 23.4038 24.313C23.5235 24.3142 23.6423 24.2915 23.7532 24.2463C23.864 24.201 23.9648 24.1341 24.0494 24.0494C24.1341 23.9648 24.201 23.864 24.2463 23.7532C24.2915 23.6423 24.3142 23.5235 24.313 23.4038C24.3118 23.2841 24.2867 23.1658 24.2392 23.0559C24.1917 22.9459 24.1227 22.8466 24.0363 22.7637L18.6627 17.39C19.9341 15.8377 20.7 13.8569 20.7 11.7C20.7 6.74011 16.6599 2.70001 11.7 2.70001ZM11.7 4.50001C15.6871 4.50001 18.9 7.7129 18.9 11.7C18.9 15.6871 15.6871 18.9 11.7 18.9C7.7129 18.9 4.50001 15.6871 4.50001 11.7C4.50001 7.7129 7.7129 4.50001 11.7 4.50001Z" fill="#FFD100"/>
</svg>
